P2
# Komentarz
91 149
255
0 0 0 0 0 0 0 0 0 0 0 0 0 0 0 0 0 0 0 0 0 0 0 0 0 0 0 0 0 0 0 0 0 0 0 0 0 0 0 0 0 0 0 0 0 0 0 0 0 0 0 0 0 0 0 37 0 0 0 0 0 0 0 0 0 0 0 0 0 0 0 0 0 0 0 0 0 0 0 0 0 0 0 0 0 0 0 0 0 0 0 0 0 0 0 0 0 0 0 0 0 0 0 0 0 0 0 0 0 0 0 0 0 0 0 0 0 0 0 0 0 0 0 0 0 0 0 0 0 0 0 0 0 0 0 0 0 0 0 0 7 0 5 47 47 38 0 0 0 0 0 0 0 0 0 0 0 0 0 0 0 0 0 0 0 0 0 0 0 0 0 0 0 0 0 0 0 0 0 0 0 0 0 0 0 0 0 0 0 0 0 0 0 0 0 0 0 0 0 0 0 0 0 0 0 0 0 0 0 0 0 0 0 0 0 0 0 0 0 0 0 0 0 0 0 0 0 0 0 0 0 5 121 121 121 121 121 85 1 0 0 0 0 0 0 0 0 0 0 0 0 0 0 0 0 0 0 0 0 0 0 0 0 0 0 0 0 0 0 0 0 0 0 0 0 0 0 0 0 0 0 0 0 0 0 0 0 0 0 0 0 0 0 0 0 0 0 0 0 0 0 0 0 0 0 0 0 0 0 0 0 0 0 0 0 0 0 0 0 0 0 30 121 121 121 121 121 121 121 5 0 0 0 0 0 0 0 0 0 0 0 0 0 0 0 0 0 0 0 0 0 0 0 0 0 0 0 0 0 0 0 0 0 0 0 0 0 0 0 0 0 0 0 0 0 0 0 0 0 0 0 0 0 0 0 0 0 0 0 0 0 0 0 0 0 0 0 0 0 0 0 0 0 0 0 0 0 0 0 0 0 10 121 121 121 121 121 121 121 121 1 37 0 0 0 0 0 0 0 7 0 0 0 0 5 0 0 0 0 0 0 0 0 0 0 0 0 0 0 0 0 0 0 0 0 0 0 0 0 0 0 0 0 0 0 0 0 0 0 0 0 0 0 0 0 0 0 0 0 0 0 0 0 0 0 0 0 0 0 0 0 0 0 0 0 0 0 0 0 0 7 10 121 121 121 121 121 121 121 121 121 0 0 0 0 0 0 0 0 0 1 23 121 121 121 121 121 1 0 0 0 0 0 0 0 0 0 0 0 0 0 0 0 0 0 0 0 0 0 0 0 0 0 0 0 0 0 0 0 0 0 0 0 0 0 0 0 0 0 0 0 0 0 0 0 0 0 0 0 0 0 0 0 0 0 0 0 0 0 0 0 1 121 121 121 121 121 121 121 121 121 23 0 5 5 0 5 37 0 1 23 121 121 121 121 121 121 121 38 0 0 0 0 0 0 0 0 0 0 0 0 0 0 0 0 0 0 0 0 0 0 0 0 0 0 0 0 0 0 0 0 0 0 0 0 0 0 0 0 0 0 0 0 0 0 0 0 0 0 0 0 0 0 0 0 0 0 0 0 0 0 5 47 121 121 121 121 121 121 121 121 121 5 1 121 47 23 5 0 0 1 121 121 121 121 121 121 121 121 121 5 0 0 0 0 0 0 0 0 0 0 0 0 0 0 0 0 0 0 0 0 0 0 0 0 0 0 0 0 0 0 0 0 0 0 0 0 0 0 0 0 0 0 0 0 0 0 0 0 0 0 0 0 0 0 0 0 0 0 0 0 0 1 121 121 121 121 121 121 121 121 121 121 0 23 121 121 121 121 121 23 1 0 10 121 121 121 121 121 121 121 23 0 0 0 0 0 0 0 0 0 0 0 0 0 0 0 0 0 0 0 0 0 0 0 0 0 0 0 0 0 0 0 0 0 0 0 0 0 0 0 0 0 0 0 0 0 0 0 0 0 0 0 0 0 0 0 0 0 0 0 0 0 10 121 121 121 121 121 121 121 121 121 5 1 121 121 121 121 121 121 121 121 23 0 0 121 121 121 121 121 121 5 0 0 0 0 0 0 0 0 0 0 0 0 0 0 0 0 0 0 0 0 0 0 0 0 0 0 0 0 0 0 0 0 0 0 0 0 0 0 0 0 0 0 0 0 0 0 0 0 0 0 0 0 0 0 0 0 0 0 0 0 5 23 121 121 121 121 121 121 121 121 23 0 47 121 121 121 121 121 121 121 121 121 121 1 0 47 121 121 121 121 0 0 0 0 0 0 0 0 0 0 0 0 0 0 0 0 0 0 0 0 0 0 0 0 0 0 0 0 0 0 0 0 0 0 0 0 0 0 0 0 0 0 0 0 0 0 0 0 0 0 0 0 0 0 0 0 0 0 0 0 0 0 30 121 121 121 121 121 121 121 47 0 23 121 121 121 121 121 121 121 121 121 121 121 121 5 0 47 121 121 10 18 0 0 0 0 0 0 0 0 0 0 0 0 0 0 0 0 0 0 0 0 0 0 0 0 0 0 0 0 0 0 0 0 0 0 0 0 0 0 0 0 0 0 0 0 0 0 0 0 0 0 0 0 0 0 0 0 0 0 0 23 38 23 121 121 121 121 121 121 121 0 38 121 121 121 121 121 121 121 121 121 121 121 121 121 121 5 0 121 85 0 0 0 0 0 0 0 0 0 0 0 0 0 0 0 0 0 0 0 0 0 0 0 0 0 0 0 0 0 0 0 0 0 0 0 0 0 0 0 0 0 0 0 0 0 0 0 0 0 0 0 0 0 0 0 0 0 0 0 0 23 141 23 5 121 121 121 121 121 121 10 23 121 121 121 121 121 121 121 121 121 121 121 121 121 121 121 121 0 1 10 37 0 0 0 0 0 0 0 0 0 0 0 0 0 0 0 0 0 0 0 0 0 0 0 0 0 0 0 0 0 0 0 0 0 0 0 0 0 0 0 0 0 0 0 0 0 0 0 0 0 0 0 0 0 0 0 0 0 5 10 121 121 121 1 10 121 121 121 121 121 85 121 121 121 121 121 121 121 121 121 121 121 121 121 121 121 121 121 23 0 37 0 0 0 0 0 0 0 0 0 0 0 0 0 0 0 0 0 0 0 0 0 0 0 0 0 0 0 0 0 0 0 0 0 0 0 0 0 0 0 0 0 0 0 0 0 0 0 0 0 0 0 0 0 0 0 0 0 0 1 121 121 121 121 38 5 121 121 121 121 121 121 121 121 121 121 121 121 121 121 121 121 121 121 121 121 121 121 121 121 5 1 0 0 0 0 0 0 0 0 0 0 0 0 0 0 0 0 0 0 0 0 0 0 0 0 0 0 0 0 0 0 0 0 0 0 0 0 0 0 0 0 0 0 0 0 0 0 0 0 0 0 0 0 0 0 0 0 0 0 47 121 121 121 121 121 121 121 121 121 121 121 121 121 121 121 121 121 121 121 121 121 121 121 121 121 121 121 121 121 121 121 0 37 0 0 0 0 0 0 0 0 0 0 0 0 0 0 0 0 0 0 0 0 0 0 0 0 0 0 0 0 0 0 0 0 0 0 0 0 0 0 0 0 0 0 0 0 0 0 0 0 0 0 0 0 0 0 0 37 1 121 121 121 121 121 121 121 121 121 121 121 121 121 121 121 121 121 121 121 121 121 121 121 121 121 121 121 121 121 121 121 121 47 0 0 0 0 0 0 0 0 0 0 0 0 0 0 0 0 0 0 0 0 0 0 0 0 0 0 0 0 0 0 0 0 0 0 0 0 0 0 0 0 0 0 0 0 0 0 0 0 0 0 0 0 0 0 0 0 0 38 121 121 121 121 121 121 121 121 121 121 121 121 121 121 121 121 121 121 121 121 121 121 121 121 121 121 121 121 121 121 121 121 121 23 13 0 0 0 0 0 0 0 0 0 0 0 0 0 0 0 0 0 0 0 0 0 0 0 0 0 0 0 0 0 0 0 0 0 0 0 0 0 0 0 0 0 0 0 0 0 0 0 0 0 0 0 0 0 0 1 121 121 121 121 121 121 121 121 121 121 121 121 121 121 121 121 121 121 121 121 121 121 121 121 121 121 121 121 121 121 121 121 121 121 121 1 0 0 0 0 0 0 0 0 0 0 0 0 0 0 0 0 0 0 0 0 0 0 0 0 0 0 0 0 0 0 0 0 0 0 0 0 0 0 0 0 0 0 0 0 0 0 0 0 0 0 0 0 0 7 23 121 121 121 121 121 121 121 121 121 121 121 121 121 121 121 121 121 121 121 121 121 121 121 121 121 121 121 121 121 121 121 121 121 121 121 47 5 0 0 0 0 0 0 0 0 0 0 0 0 0 0 0 0 0 0 0 0 0 0 0 0 0 0 0 0 0 0 0 0 0 0 0 0 0 0 0 0 0 0 0 0 0 0 0 0 0 0 0 0 5 121 121 121 121 121 121 121 121 121 121 121 121 121 121 121 121 121 121 121 121 121 121 121 121 121 121 121 121 121 121 121 121 121 121 121 121 121 47 18 0 0 0 0 0 0 0 0 0 0 0 0 0 0 0 0 0 0 0 0 0 0 0 0 0 0 0 0 0 0 0 0 0 0 0 0 0 0 0 0 0 0 0 0 0 0 0 0 0 0 0 5 121 121 121 121 121 121 121 121 121 121 121 121 121 121 121 121 121 121 121 121 121 121 121 121 121 121 121 121 121 121 121 121 121 121 121 121 121 121 23 13 0 0 0 0 0 0 0 0 0 0 0 0 0 0 0 0 0 0 0 0 0 0 0 0 0 0 0 0 0 0 0 0 0 0 0 0 0 0 0 0 0 0 0 0 0 0 0 0 0 0 23 121 121 121 121 121 121 121 121 121 121 121 121 121 121 121 121 121 121 121 121 121 121 121 121 121 121 121 121 121 121 121 121 121 121 121 121 121 121 121 10 18 0 0 0 0 0 0 0 0 0 0 0 0 0 0 0 0 0 0 0 0 0 0 0 0 0 0 0 0 0 0 0 0 0 0 0 0 0 0 0 0 0 0 0 0 0 0 0 0 37 47 121 121 121 121 121 121 121 121 121 121 121 121 121 121 121 121 121 121 121 121 121 121 121 121 121 121 121 121 121 121 121 121 121 121 121 121 121 121 121 121 10 7 0 0 0 0 0 0 0 0 0 0 0 0 0 0 0 0 0 0 0 0 0 0 0 0 0 0 0 0 0 0 0 0 0 0 0 0 0 0 0 0 0 0 0 0 0 0 0 30 121 121 121 121 121 121 121 121 121 121 121 121 121 121 121 121 121 121 121 121 121 121 121 121 121 121 121 121 121 121 121 121 121 121 121 121 121 121 121 121 121 121 23 7 0 0 0 0 0 0 0 0 0 0 0 0 0 0 0 0 0 0 0 0 0 0 0 0 0 0 0 0 0 0 0 0 0 0 0 0 0 0 0 0 0 0 0 0 0 0 23 121 121 121 121 121 121 121 121 121 121 121 121 121 121 121 121 121 121 121 121 121 121 121 121 121 121 121 121 121 121 121 121 121 121 121 121 121 121 121 121 121 121 121 1 37 0 0 0 0 0 0 0 0 0 0 0 0 0 0 0 0 0 0 0 0 0 0 0 0 0 0 0 0 0 0 0 0 0 0 0 0 0 0 0 0 0 0 0 0 0 47 121 121 121 121 121 121 121 121 121 121 121 121 121 121 121 121 121 121 121 121 121 121 121 121 121 121 121 121 121 121 1 0 0 47 121 121 121 121 121 121 121 121 121 5 0 0 0 0 0 0 0 0 0 0 0 0 0 0 0 0 0 0 0 0 0 0 0 0 0 0 0 0 0 0 0 0 0 0 0 0 0 0 0 0 0 0 0 0 0 0 121 121 121 121 121 121 121 121 121 121 121 121 121 121 121 121 121 121 121 121 121 121 121 121 121 121 121 121 121 121 10 23 47 38 121 121 121 121 121 121 121 121 121 121 5 13 0 0 0 0 0 0 0 0 0 0 0 0 0 0 0 0 0 0 0 0 0 0 0 0 0 0 0 0 0 0 0 0 0 0 0 0 0 0 0 0 0 0 0 0 7 121 121 121 121 121 121 121 121 121 121 121 121 121 121 121 121 121 121 121 121 121 121 121 121 121 121 121 121 121 38 47 121 121 121 121 121 121 121 121 121 121 121 121 121 0 0 0 0 0 0 0 0 0 0 0 0 0 0 0 0 0 0 0 0 0 0 0 0 0 0 0 0 0 0 0 0 0 0 0 0 0 0 0 0 0 0 0 0 1 5 23 121 121 121 121 121 121 121 121 121 121 121 121 121 121 121 121 121 121 121 121 121 121 121 121 121 121 121 121 121 121 121 121 121 121 121 121 121 121 121 121 121 121 121 5 7 0 0 0 0 0 0 0 0 0 0 0 0 0 0 0 0 0 0 0 0 0 0 0 0 0 0 0 0 0 0 0 0 0 0 0 0 0 0 0 1 1 1 1 0 1 121 121 121 121 121 121 121 121 121 121 121 121 121 121 121 121 121 121 121 121 121 121 121 121 121 121 121 121 121 121 121 121 121 121 121 121 121 121 121 121 121 121 121 23 13 0 0 0 0 0 0 0 0 0 0 0 0 0 0 0 0 0 0 0 0 0 0 0 0 0 0 0 0 0 0 0 0 0 0 0 0 0 0 0 0 0 1 1 1 0 47 121 121 121 121 121 121 121 121 121 121 121 121 121 121 121 121 121 121 121 121 121 121 121 121 121 121 121 121 121 121 121 121 121 121 121 121 121 121 121 121 121 121 10 0 0 0 0 0 0 0 0 0 0 0 0 0 0 0 0 0 0 0 0 0 0 0 0 0 0 0 0 0 0 0 0 0 0 0 0 0 0 0 0 0 0 0 1 1 0 10 121 121 121 121 121 121 121 121 121 121 121 121 121 121 121 121 121 121 121 121 121 121 121 121 121 121 121 121 121 121 121 121 121 85 1 0 121 121 121 121 121 121 85 13 0 0 0 0 0 0 0 0 0 0 0 0 0 0 0 0 0 0 0 0 0 0 0 0 0 0 0 0 0 0 0 0 0 0 0 0 0 0 0 0 0 0 0 0 1 5 121 121 121 121 121 121 121 121 121 121 121 121 121 121 121 121 121 121 121 121 121 121 121 121 121 121 121 121 121 121 121 121 121 121 0 0 0 121 121 121 121 121 121 121 5 18 0 0 0 0 0 0 0 0 0 0 0 0 0 0 0 0 0 0 0 0 0 0 0 0 0 0 0 0 0 0 0 0 0 0 0 0 0 0 0 0 0 1 0 1 121 121 121 121 121 121 121 121 121 121 121 121 121 121 121 121 121 121 121 121 121 121 121 121 121 121 121 121 121 121 121 121 121 121 5 0 0 10 121 121 121 121 121 121 121 121 10 5 0 0 0 0 0 0 0 0 0 0 0 0 0 0 0 0 0 0 0 0 0 0 0 0 0 0 0 0 0 0 0 0 0 0 0 0 0 0 0 0 7 1 1 121 121 121 121 121 121 121 121 121 121 121 121 121 121 121 121 121 121 121 121 121 121 121 121 121 121 121 121 121 121 121 121 121 121 47 3 10 121 121 121 121 121 121 121 121 121 121 121 47 0 0 0 0 0 0 0 0 0 0 0 0 0 0 0 0 0 0 0 0 0 0 0 0 0 0 0 0 0 0 0 0 0 0 0 0 0 0 0 1 1 0 10 121 121 121 121 121 121 121 121 121 121 121 121 121 121 121 121 121 121 121 121 121 121 121 121 121 121 121 121 121 121 121 121 121 121 121 121 121 121 121 121 121 121 121 121 121 121 121 121 121 5 0 0 0 0 0 0 0 0 0 0 0 0 0 0 0 0 0 0 0 0 0 0 0 0 0 0 0 0 0 0 0 0 0 0 0 0 0 7 1 1 0 85 121 121 121 121 121 121 121 121 121 121 121 121 121 121 121 121 121 121 121 121 121 121 121 121 121 121 121 121 121 121 121 121 121 121 121 121 121 121 121 121 121 121 121 121 121 121 121 121 121 0 37 0 0 0 0 0 0 0 0 0 0 0 0 0 0 0 0 0 0 0 0 0 0 0 0 0 0 0 0 0 0 0 0 0 0 0 1 1 1 1 1 121 121 121 121 121 121 121 121 121 121 121 121 121 121 121 121 121 121 121 121 121 121 121 121 121 121 121 121 121 121 121 121 121 121 121 121 121 121 121 121 121 121 121 121 121 121 121 121 121 47 0 0 0 0 0 0 0 0 0 0 0 0 0 0 0 0 0 0 0 0 0 0 0 0 0 0 0 0 0 0 0 0 0 0 0 0 7 1 1 1 0 5 121 121 121 121 121 121 121 121 121 121 121 121 121 121 121 121 121 121 121 121 121 121 121 121 121 121 121 121 121 121 121 121 121 121 121 121 121 121 121 121 121 121 121 121 121 121 5 1 5 0 1 0 0 0 0 0 0 0 0 0 0 0 0 0 0 0 0 0 0 0 0 0 0 0 0 0 0 0 0 0 0 0 0 0 0 1 1 1 1 1 0 5 121 121 121 121 121 121 121 121 121 121 121 121 121 121 121 121 121 121 121 121 121 121 121 121 121 121 121 121 121 121 121 121 121 121 121 121 121 121 121 121 121 121 121 121 3 0 0 0 0 0 0 0 0 0 0 0 0 0 0 0 0 0 0 0 0 0 0 0 0 0 0 0 0 0 0 0 0 0 0 0 0 0 0 0 1 1 1 1 1 1 0 23 121 121 121 121 121 121 121 121 121 121 121 121 121 121 121 121 121 121 121 121 121 121 121 121 121 121 121 121 121 121 121 121 121 121 121 121 121 121 121 121 121 121 121 0 0 0 0 0 0 37 0 0 0 0 0 0 0 0 0 0 0 0 0 0 0 0 0 0 0 0 0 0 0 0 0 0 0 0 0 0 0 0 0 1 1 1 1 1 1 1 0 47 121 121 121 121 121 121 121 121 121 121 121 121 121 121 121 121 121 121 121 121 121 121 121 121 121 121 121 121 121 121 121 121 121 121 121 121 121 121 121 121 121 121 0 0 0 0 0 0 0 0 0 0 0 0 0 0 0 0 0 0 0 0 0 0 0 0 0 0 0 0 0 0 0 0 0 0 0 0 0 0 0 1 1 1 1 1 5 1 1 1 0 47 121 121 121 121 121 121 121 121 121 121 121 121 121 121 121 121 121 121 121 121 121 121 121 121 121 38 85 121 121 121 121 121 121 121 121 121 121 121 121 121 121 5 0 0 0 0 0 0 0 0 0 0 0 0 0 0 0 0 0 0 0 0 0 0 0 0 0 0 0 0 0 0 0 0 0 0 0 0 0 10 1 1 2 5 1 1 2 1 1 0 1 85 121 121 121 121 121 121 121 121 121 121 121 121 121 121 121 121 121 121 121 121 121 121 47 0 0 0 47 121 121 121 121 121 121 121 121 121 121 121 121 121 38 0 0 0 0 5 0 0 0 0 0 0 0 0 0 0 0 0 0 0 0 0 0 0 0 0 0 0 0 0 0 0 0 0 0 0 0 0 0 1 1 1 1 1 1 1 1 1 1 0 0 121 121 121 121 121 121 121 121 121 121 121 121 121 121 121 121 121 121 121 121 121 38 5 10 0 0 121 121 121 121 121 121 121 121 121 121 121 121 121 121 121 5 0 0 0 0 0 0 0 0 0 0 0 0 0 0 0 0 0 0 0 0 0 0 0 0 0 0 0 0 0 0 0 0 0 0 0 1 1 1 1 1 1 1 1 1 1 1 1 1 0 0 121 121 121 121 121 121 121 121 121 121 121 121 121 121 121 121 121 121 121 121 47 121 85 0 0 5 121 121 121 121 121 121 121 121 121 121 121 121 121 121 121 5 0 7 0 0 0 0 0 0 0 0 0 0 0 0 0 0 0 0 0 0 0 0 0 0 0 0 0 0 0 0 0 0 0 0 1 1 1 1 1 1 1 1 1 1 5 1 1 1 1 0 121 121 121 121 121 121 121 121 121 121 121 121 121 121 121 121 121 121 121 121 121 47 0 0 0 47 121 121 121 121 121 121 121 121 121 121 121 121 121 121 23 0 0 0 0 0 0 0 0 0 0 0 0 0 0 0 0 0 0 0 0 0 0 0 0 0 0 0 0 0 0 0 0 0 0 0 1 1 1 1 7 1 1 1 1 1 2 1 1 1 0 1 85 121 121 121 121 121 121 121 121 121 121 121 121 121 121 121 121 121 121 121 23 0 0 0 0 121 121 121 121 121 121 121 121 121 121 121 121 121 23 0 0 0 0 0 0 0 0 0 0 0 0 0 0 0 0 0 0 0 0 0 0 0 0 0 0 0 0 0 0 0 0 0 0 0 0 1 1 2 1 1 1 1 1 2 1 1 1 1 1 1 0 1 47 121 121 121 121 121 121 121 121 121 121 121 121 121 121 121 121 121 121 121 0 0 0 0 10 121 121 121 121 121 121 121 121 121 121 121 10 5 0 0 0 0 0 0 0 0 0 0 0 0 0 0 0 0 0 0 0 0 0 0 0 0 0 0 0 0 0 0 0 0 0 0 7 1 1 1 1 1 1 1 1 1 5 1 1 1 1 1 1 1 1 0 47 121 121 121 121 121 121 121 121 121 121 121 121 121 121 121 121 121 121 1 0 0 0 0 10 121 121 121 121 121 121 121 121 23 5 37 0 0 0 0 0 0 0 0 0 0 0 0 0 0 0 0 0 0 0 0 0 0 0 0 0 0 0 0 0 0 0 0 0 0 0 1 1 1 1 1 5 1 1 1 1 1 1 1 1 1 5 1 1 1 1 0 23 121 121 121 121 121 121 121 121 121 121 121 121 121 121 121 121 121 23 0 0 0 0 0 38 121 121 121 85 38 5 1 18 0 0 0 0 0 0 0 0 0 0 0 0 0 0 0 0 0 0 0 0 0 0 0 0 0 0 0 0 0 0 0 0 0 0 0 0 0 0 1 1 5 1 1 1 2 1 1 1 1 1 5 1 2 1 1 1 1 1 0 5 121 121 121 121 121 121 121 121 121 121 121 121 121 121 121 121 121 0 0 0 0 10 85 5 30 47 37 37 0 0 0 0 0 0 0 0 0 0 0 0 0 0 0 0 0 0 0 0 0 0 0 0 0 0 0 0 0 0 0 0 0 0 0 0 0 0 0 7 1 1 1 1 1 1 1 1 1 5 1 1 1 2 1 1 1 1 1 1 1 1 0 5 121 121 121 121 121 121 121 121 121 121 121 121 121 121 121 121 10 0 0 0 23 5 0 0 0 0 0 0 0 0 0 0 0 0 0 0 0 0 0 0 0 0 0 0 0 0 0 0 0 0 0 0 0 0 0 0 0 0 0 0 0 0 0 0 0 0 0 1 1 1 2 1 1 1 1 1 1 2 1 1 1 1 1 1 1 5 1 1 1 1 0 5 121 121 121 121 121 121 121 121 121 121 121 121 121 121 121 85 0 0 0 47 5 0 0 0 0 0 0 0 0 0 0 0 0 0 0 0 0 0 0 0 0 0 0 0 0 0 0 0 0 0 0 0 0 0 0 0 0 0 0 0 0 0 0 0 37 0 1 1 1 1 1 1 5 1 1 1 1 1 1 1 1 1 1 1 2 1 1 1 1 1 0 1 85 121 121 121 121 121 121 121 121 121 121 121 121 121 121 23 1 38 1 37 0 0 0 0 0 0 0 0 0 0 0 0 0 0 0 0 0 0 0 0 0 0 0 0 0 0 0 0 0 0 0 0 0 0 0 0 0 0 0 0 0 0 0 1 1 1 1 1 1 1 1 1 1 1 1 1 1 1 1 1 1 2 1 1 1 1 1 1 1 1 0 0 23 121 121 121 121 121 121 121 121 121 121 121 121 121 121 121 47 3 5 5 5 10 5 5 5 1 5 7 37 0 0 0 0 0 0 0 0 0 0 0 0 0 0 0 0 0 0 0 0 0 0 0 0 0 0 0 0 0 0 0 0 37 1 1 1 1 5 1 1 2 1 1 1 2 5 1 1 5 1 1 1 5 1 1 1 5 1 1 1 1 1 0 5 121 121 121 121 121 121 121 121 121 121 5 0 0 0 5 121 121 121 121 121 121 121 121 121 121 121 47 10 5 37 0 0 0 0 0 0 0 0 0 0 0 0 0 0 0 0 0 0 0 0 0 0 0 0 0 0 0 0 0 0 1 1 1 1 2 1 1 1 1 1 5 1 1 1 1 2 1 1 1 1 1 1 0 0 1 1 1 1 1 1 0 1 121 121 121 121 121 121 121 23 1 0 0 1 1 2 121 121 121 121 121 121 121 121 121 121 121 121 121 121 23 5 0 0 0 0 0 0 0 0 0 0 0 0 0 0 0 0 0 0 0 0 0 0 0 0 0 0 5 0 1 1 1 2 1 1 1 1 1 1 1 1 1 1 1 1 1 1 1 1 1 1 1 1 0 0 0 1 1 1 1 1 0 0 23 121 121 121 121 121 121 121 85 0 1 1 0 121 121 121 121 121 121 121 121 121 121 121 121 121 121 121 121 23 1 0 0 0 0 0 0 0 0 0 0 0 0 0 0 0 0 0 0 0 0 0 0 0 0 0 1 1 1 1 1 1 1 1 5 1 1 1 1 1 1 1 1 1 1 1 1 1 1 1 1 1 1 0 0 0 1 1 1 1 1 0 5 121 121 121 121 121 121 121 0 1 0 5 121 121 121 121 121 121 121 121 121 121 121 121 121 121 121 121 121 47 5 0 0 0 0 0 0 0 0 0 0 0 0 0 0 0 0 0 0 0 0 0 0 0 0 1 1 1 5 1 1 1 1 1 1 2 1 1 1 2 1 1 1 5 1 2 1 1 5 2 1 1 1 0 0 0 1 1 1 1 1 0 0 38 121 121 121 121 38 0 1 0 23 121 121 121 121 121 121 121 121 121 121 121 121 121 121 121 121 121 121 38 5 0 0 0 0 0 0 0 0 0 0 0 0 0 0 0 0 0 0 0 0 0 0 37 0 1 1 1 1 1 1 1 2 1 1 1 1 1 1 5 1 1 2 1 1 1 1 1 1 1 1 1 1 1 0 0 1 1 1 1 1 1 0 1 47 121 121 10 0 1 0 10 121 121 121 121 121 121 121 121 121 121 121 121 121 121 121 121 121 121 121 23 7 0 0 0 0 0 0 0 0 0 0 0 0 0 0 0 0 0 0 0 0 0 0 0 0 1 1 2 1 1 5 1 1 1 5 1 1 1 1 1 1 1 1 1 1 1 1 1 1 1 1 1 1 1 0 1 1 7 1 1 1 1 0 0 5 47 5 1 1 0 5 121 121 121 121 121 121 121 121 121 121 121 121 121 121 121 121 121 121 121 121 0 37 0 0 0 0 0 0 0 0 0 0 0 0 0 0 0 0 0 0 0 0 0 0 0 1 1 1 5 1 1 1 1 1 1 1 1 1 1 1 1 1 1 5 1 1 1 1 1 1 5 2 1 1 0 0 1 0 1 1 1 1 1 1 0 0 0 1 1 0 1 121 121 121 38 121 121 121 121 121 121 121 121 121 121 121 121 121 121 47 121 3 0 0 0 0 0 0 0 0 0 0 0 0 0 0 0 0 0 0 0 0 0 7 47 0 0 1 1 1 1 1 1 1 1 1 1 2 1 0 1 2 1 1 1 2 1 1 5 2 1 1 1 1 1 0 0 1 0 1 1 1 1 1 1 1 1 0 1 1 0 0 121 121 121 85 10 121 121 121 121 121 121 121 121 121 121 121 121 23 1 5 0 10 1 0 0 0 0 0 0 0 0 0 0 0 0 0 0 0 0 0 0 0 10 121 23 0 1 1 1 1 1 2 0 1 1 1 1 1 0 1 1 1 1 1 1 1 1 1 1 1 1 1 1 1 1 0 1 0 1 1 1 1 1 1 1 1 1 1 1 0 0 121 121 121 121 5 23 121 121 121 121 121 121 121 121 121 121 23 1 85 121 85 71 3 0 0 0 0 0 0 0 0 0 0 0 0 0 0 0 0 0 0 0 47 121 121 7 0 1 1 2 1 1 1 0 1 5 1 0 0 1 1 5 1 1 1 1 1 1 1 1 1 1 1 1 1 0 0 0 1 1 7 1 0 1 5 1 1 1 1 1 0 85 121 121 121 5 0 85 121 121 121 121 121 121 121 121 47 1 47 121 121 121 47 7 0 0 0 0 0 0 0 0 0 0 0 0 0 0 0 0 0 0 10 121 121 121 121 0 1 1 1 1 1 1 0 1 1 1 0 0 1 1 1 1 1 1 1 1 1 1 1 1 5 1 1 1 1 0 0 1 1 0 3 10 19 3 19 3 0 1 1 0 47 121 121 121 5 5 0 5 10 23 10 10 85 38 23 5 3 121 121 121 30 5 0 0 0 0 0 0 0 0 0 0 0 0 0 0 0 0 0 0 0 121 121 121 121 121 47 0 1 1 1 5 1 0 0 1 1 0 0 1 1 1 1 2 5 1 1 2 1 5 2 1 1 1 1 1 0 0 1 0 5 19 19 19 19 19 19 19 5 0 0 1 23 10 5 1 121 71 85 121 121 121 5 0 30 121 121 121 121 121 121 1 0 0 0 0 0 0 0 0 0 0 0 0 0 0 0 0 0 0 0 30 121 121 121 121 121 121 10 0 1 1 1 1 1 0 1 1 0 1 1 1 2 1 1 1 1 1 5 1 1 1 1 1 1 2 1 0 0 0 0 19 19 19 19 19 19 19 19 19 19 1 0 0 37 0 37 23 121 121 121 121 121 121 71 121 121 121 121 121 121 47 37 0 0 0 0 0 0 0 0 0 0 0 0 0 0 0 0 0 0 0 121 121 121 121 121 121 121 121 5 0 1 1 1 1 0 1 1 0 0 1 1 1 1 1 1 1 1 1 1 1 1 1 1 1 1 1 0 0 0 1 19 19 19 19 19 3 3 19 19 19 19 19 1 1 0 0 0 30 38 121 121 121 121 121 121 121 121 121 121 121 10 0 0 0 0 0 0 0 0 0 0 0 0 0 0 0 0 0 0 0 47 121 121 121 121 121 121 121 121 121 1 0 1 1 1 1 1 1 0 1 1 1 5 1 1 1 1 1 1 1 1 1 1 5 1 1 1 1 0 0 0 19 19 19 19 19 19 1 0 19 19 19 19 19 10 1 5 136 0 0 10 85 121 121 121 121 121 121 121 121 5 37 0 0 0 0 0 0 0 0 0 0 0 0 0 0 0 0 0 0 0 121 121 121 121 121 121 121 121 121 121 121 5 0 1 1 1 0 1 0 0 1 1 1 1 1 1 1 2 1 1 1 1 2 1 1 1 1 1 0 0 0 19 19 19 19 19 19 19 2 0 5 19 19 19 19 19 10 0 13 0 0 1 0 5 47 121 121 121 121 30 1 0 0 0 0 0 0 0 0 0 0 0 0 0 0 0 0 0 0 0 47 121 121 121 121 121 121 121 121 121 121 121 121 5 0 1 1 0 0 0 0 1 1 1 1 2 5 1 1 1 1 1 1 1 1 1 1 1 1 1 0 0 0 19 19 19 19 19 19 19 5 0 0 19 19 19 19 19 19 1 1 0 0 37 0 0 1 5 10 10 5 0 0 0 0 0 0 0 0 0 0 0 0 0 0 0 0 0 0 0 0 121 121 121 121 121 121 121 121 121 121 121 121 121 121 5 0 0 1 0 0 1 1 1 2 1 1 1 1 1 1 5 1 1 1 1 1 7 1 1 1 0 10 10 3 19 19 19 19 19 19 19 19 1 0 5 19 19 19 19 19 10 1 7 0 0 0 37 7 18 37 0 0 0 0 0 0 0 0 0 0 0 0 0 0 0 0 0 0 0 0 47 121 121 121 121 121 121 121 121 121 121 121 121 121 121 121 23 1 0 0 0 1 1 1 1 1 1 1 1 1 1 2 0 0 0 3 1 3 0 0 0 0 1 19 5 19 19 19 19 19 19 19 19 19 19 0 0 7 19 19 19 19 19 5 5 0 0 0 0 0 0 0 0 0 0 0 0 0 0 0 0 0 0 0 0 0 0 0 0 0 0 121 121 121 121 121 121 121 121 121 121 121 121 121 121 121 121 121 121 23 0 0 1 1 1 5 1 1 1 1 1 0 0 5 23 121 121 121 121 121 23 1 0 0 19 19 3 7 19 19 19 19 19 19 19 19 19 5 0 1 19 19 19 19 19 19 1 37 0 0 0 0 0 0 0 0 0 0 0 0 0 0 0 0 0 0 0 0 0 0 0 30 121 121 121 121 121 121 121 121 121 121 121 121 121 121 121 121 121 121 121 121 0 0 1 1 1 1 1 1 7 0 0 47 121 121 121 121 121 121 121 121 121 23 0 1 19 19 1 3 19 19 19 19 19 19 19 19 19 19 3 0 5 19 19 19 19 19 5 1 0 0 0 0 0 0 0 0 0 0 0 0 0 0 0 0 0 0 0 0 0 0 121 121 121 121 121 121 121 121 121 121 121 121 121 121 121 121 121 121 121 121 121 1 0 1 1 1 1 1 1 0 10 121 121 121 121 121 121 121 121 121 121 121 121 47 0 3 19 19 1 0 10 19 19 19 19 19 19 19 19 19 10 0 0 10 19 19 19 19 19 1 0 0 0 0 0 0 0 0 0 0 0 0 0 0 0 0 0 0 0 0 5 121 121 121 121 121 121 121 121 121 121 121 121 121 121 121 121 121 121 121 121 121 5 0 1 1 2 1 1 0 10 121 121 121 121 121 121 121 121 121 121 121 121 121 121 10 1 30 19 19 5 0 1 19 19 19 19 19 19 19 19 19 19 19 0 0 7 19 19 19 19 5 7 0 0 0 0 0 0 0 0 0 0 0 0 0 0 0 0 0 0 23 121 121 121 121 121 121 121 121 121 121 121 121 121 121 121 121 121 121 121 121 121 47 0 1 1 5 1 0 5 121 121 121 121 121 121 121 121 121 121 121 121 121 121 121 121 10 5 19 19 19 19 0 0 19 19 19 19 19 19 19 19 19 19 19 3 0 0 19 19 19 19 19 5 0 0 0 0 0 0 0 0 0 0 0 0 0 0 0 0 0 47 121 121 121 121 121 121 121 121 121 121 121 121 121 121 121 121 121 121 121 121 121 121 1 1 1 1 1 0 121 121 121 121 121 121 121 121 121 121 121 121 121 121 121 121 121 121 10 10 19 19 19 19 1 0 5 19 19 19 19 19 19 19 19 19 19 19 10 1 0 5 7 19 10 1 0 0 0 0 0 0 0 0 0 0 0 0 0 0 0 5 121 121 121 121 121 121 121 121 121 121 121 121 121 121 121 121 121 121 121 121 121 121 121 23 0 1 1 0 10 121 121 121 121 121 121 121 121 121 121 121 121 121 121 121 121 121 121 121 10 5 19 19 19 19 10 0 0 19 19 19 19 19 19 19 19 19 19 19 19 19 3 1 1 1 10 1 0 0 0 0 0 0 0 0 0 0 0 0 0 0 10 121 121 121 121 121 121 121 121 121 121 121 121 121 121 121 121 121 121 121 121 121 121 121 121 0 1 1 1 121 121 121 121 121 121 121 121 121 121 121 121 121 121 121 121 121 121 121 121 121 10 1 19 19 19 19 19 1 0 5 19 19 19 19 19 19 19 19 19 19 19 19 19 10 10 3 10 1 0 0 0 0 0 0 0 0 0 0 0 0 0 23 121 121 121 121 121 121 121 121 121 121 121 121 121 121 121 121 121 121 121 121 121 121 121 121 10 0 1 2 121 121 121 121 121 121 121 121 121 121 121 121 121 121 121 121 121 121 121 121 121 121 10 1 19 19 19 19 19 10 0 1 19 19 19 19 19 19 19 19 19 19 19 19 19 19 19 19 19 37 0 0 0 0 0 0 0 0 0 0 0 0 47 121 121 121 121 121 121 121 121 121 121 121 121 121 121 121 121 121 121 121 121 121 121 121 121 121 1 0 5 121 121 121 121 121 121 121 121 121 121 121 121 121 121 121 121 121 121 121 121 121 121 121 10 1 19 19 19 19 19 19 19 3 19 19 19 19 19 19 19 19 19 19 19 19 19 19 19 19 1 0 0 0 0 0 0 0 0 0 0 0 0 121 121 121 121 121 121 121 121 121 121 121 121 121 121 121 121 121 121 121 121 121 121 121 121 121 121 23 0 5 121 121 121 121 121 121 121 121 121 121 121 121 121 121 121 121 121 121 121 121 121 121 121 121 10 0 19 19 19 19 19 19 19 19 19 19 19 19 19 19 19 19 19 19 19 19 19 19 19 1 0 0 0 0 0 0 0 0 0 0 0 0 47 121 121 121 121 121 121 121 121 121 121 121 121 121 121 121 121 121 121 121 121 121 121 121 121 121 121 5 0 121 121 121 121 121 121 121 121 121 121 121 121 121 121 121 121 121 121 121 121 121 121 121 121 121 10 0 19 19 19 19 19 19 19 19 19 19 19 19 7 3 19 3 19 19 19 19 19 19 1 0 0 0 0 0 0 0 0 0 0 0 0 38 121 121 121 121 121 121 121 121 121 121 121 121 121 121 121 121 121 121 121 121 121 121 121 121 121 121 121 0 47 121 121 121 121 121 121 121 121 121 121 121 121 121 121 121 121 121 121 121 121 121 121 121 121 121 23 1 19 19 19 19 19 19 19 19 19 19 19 19 3 5 0 0 0 3 10 7 0 0 0 0 0 0 0 0 0 0 0 0 0 0 121 121 121 121 121 121 121 121 121 121 121 121 121 121 121 121 121 121 121 121 121 121 121 121 121 121 121 121 121 1 121 121 121 121 121 121 121 121 121 121 121 121 121 121 121 121 121 121 121 121 121 121 121 121 121 121 10 1 19 19 19 19 19 19 19 19 19 19 19 19 19 19 10 2 0 13 0 0 0 0 0 0 0 0 0 0 0 0 0 0 0 47 121 121 121 121 121 121 121 121 121 121 121 121 121 121 121 121 121 121 121 121 121 121 121 121 121 121 121 121 23 1 121 121 121 121 121 121 121 121 121 121 121 121 121 121 121 121 121 121 121 121 121 121 121 121 121 121 10 1 19 19 19 19 19 19 19 19 19 19 19 19 19 19 19 3 0 0 0 0 0 0 0 0 0 0 0 0 0 0 0 0 121 121 121 121 121 121 121 121 121 121 121 121 121 121 121 121 121 121 121 121 121 121 121 121 121 121 121 121 121 23 0 5 121 121 121 121 121 121 121 121 121 121 121 121 121 121 121 121 121 121 121 121 121 121 121 121 121 121 5 2 19 19 19 19 19 19 19 19 19 19 19 19 19 19 3 0 0 0 0 0 0 0 0 0 0 0 0 0 0 0 0 85 121 121 121 121 121 121 121 121 121 121 121 121 121 121 121 121 121 121 121 121 121 121 121 121 121 121 121 121 1 0 10 10 121 121 121 121 121 121 121 121 121 121 121 121 121 121 121 121 121 121 121 121 121 121 121 121 121 121 1 1 19 19 19 19 19 19 19 19 19 19 19 19 19 19 0 0 0 0 0 0 0 0 0 0 0 0 0 0 0 0 47 121 121 121 121 121 121 121 121 121 121 121 121 121 121 121 121 121 121 121 121 121 121 121 121 121 121 121 121 0 10 30 19 23 121 121 121 121 121 121 121 121 121 121 121 121 121 121 121 121 121 121 121 121 121 121 121 121 121 121 0 10 19 19 19 19 19 19 19 19 3 19 19 19 3 0 0 0 0 0 0 0 0 0 0 0 0 0 0 0 0 23 121 121 121 121 121 121 121 121 121 121 121 121 121 121 121 121 121 121 121 121 121 121 121 121 121 121 121 23 0 30 30 30 30 47 121 121 121 121 121 121 121 121 121 121 121 121 121 121 121 121 121 121 121 121 121 121 121 121 121 23 0 19 19 19 19 19 19 3 19 0 0 5 7 3 0 0 0 0 0 0 0 0 0 0 0 0 0 0 0 0 10 121 121 121 121 121 121 121 121 121 121 121 121 121 121 121 121 121 121 121 121 121 121 121 121 121 121 121 10 1 30 30 30 30 30 47 121 121 121 121 121 121 121 121 121 121 121 121 121 121 121 121 121 121 121 121 121 121 121 121 121 5 2 19 19 19 19 19 3 0 1 3 19 19 5 0 0 0 0 0 0 0 0 0 0 0 0 0 0 0 0 5 121 121 121 121 121 121 121 121 121 121 121 121 121 121 121 121 121 121 121 121 121 121 121 121 121 121 121 5 10 30 30 30 30 30 30 30 121 121 121 121 121 121 121 121 121 121 121 121 121 121 121 121 121 121 121 121 121 121 121 121 47 0 19 19 19 19 19 19 2 1 1 10 7 0 0 0 0 0 0 0 0 0 0 0 0 0 0 0 0 0 7 121 121 121 121 121 121 121 121 121 121 47 10 5 3 5 38 85 121 121 121 121 121 121 121 121 121 121 0 30 30 30 30 30 30 30 30 19 47 121 121 121 121 121 121 121 121 121 121 121 121 121 121 121 121 121 121 121 121 121 121 121 1 10 19 19 7 10 19 19 19 19 19 19 0 0 0 0 0 0 0 0 0 0 0 0 0 0 0 0 0 0 23 121 121 121 121 121 121 121 121 23 10 23 71 85 71 23 1 10 121 121 121 121 121 121 121 121 121 1 19 30 30 30 30 30 30 30 30 30 23 121 121 121 121 121 121 121 121 121 121 121 121 121 121 121 121 121 121 121 121 121 121 10 3 19 19 19 19 1 5 19 3 19 19 1 0 0 0 0 0 0 0 0 0 0 0 0 0 0 0 0 0 10 121 121 121 121 121 121 47 10 47 121 121 121 121 121 121 85 1 5 121 121 121 121 121 121 121 121 0 30 30 30 30 30 30 30 30 30 30 30 5 38 121 121 121 121 121 121 121 121 121 121 121 121 121 121 121 121 121 121 121 121 23 3 19 19 19 19 19 7 1 2 5 10 1 0 0 0 0 0 0 0 0 0 0 0 0 0 0 0 0 0 5 121 121 121 121 121 23 5 121 121 121 121 121 121 121 121 121 121 1 23 121 121 121 121 121 121 121 1 30 30 30 30 30 30 30 30 30 30 30 30 0 10 121 121 121 121 121 121 121 121 121 121 121 121 121 121 121 121 121 121 121 47 1 19 19 19 19 1 10 19 19 19 7 0 0 0 0 0 0 0 0 0 0 0 0 0 0 0 0 0 0 0 47 121 121 121 23 10 121 121 121 121 121 121 121 121 121 121 121 23 1 121 121 121 121 121 121 85 1 30 30 30 30 30 30 30 30 30 30 30 30 30 5 5 38 121 121 121 121 121 121 121 121 121 121 121 121 121 121 121 121 121 47 2 19 19 19 3 2 0 0 5 19 3 0 0 0 0 0 0 0 0 0 0 0 0 0 0 0 0 0 0 0 10 121 121 23 5 121 121 121 121 121 121 121 121 121 121 121 121 121 1 71 121 121 121 121 121 121 0 30 30 30 30 30 30 30 30 30 30 30 30 30 30 30 5 1 10 121 121 121 121 121 121 121 121 121 121 121 121 121 121 121 71 0 10 19 19 19 19 19 19 19 19 1 0 0 0 0 0 0 0 0 0 0 0 0 0 0 0 0 0 0 0 0 121 47 1 121 121 121 121 121 121 121 121 121 121 121 121 121 121 10 23 121 121 121 121 121 121 1 19 30 30 30 30 30 30 30 30 30 30 30 30 30 30 30 19 1 0 5 121 121 121 121 121 121 121 121 121 121 121 121 121 23 0 1 1 19 19 19 19 19 19 19 7 0 0 0 0 0 0 0 0 0 0 0 0 0 0 0 0 0 0 0 0 10 3 121 121 121 121 121 121 121 121 121 121 121 121 121 121 121 47 10 121 121 121 121 121 121 1 30 30 30 30 30 30 30 30 30 30 30 30 30 30 30 30 30 30 30 5 0 5 38 121 121 121 121 121 121 121 121 121 121 5 30 19 1 0 1 1 1 1 1 1 0 0 0 0 0 0 0 0 0 0 0 0 0 0 0 0 0 0 0 0 0 7 23 121 121 121 121 121 121 121 121 121 121 121 121 121 121 121 121 5 121 121 121 121 121 121 1 10 30 30 30 30 30 30 30 30 30 30 30 30 30 30 30 30 30 30 30 30 10 0 1 23 121 121 121 121 121 121 121 23 1 30 30 30 30 30 5 0 5 5 1 0 0 0 0 0 0 0 0 0 0 0 0 0 0 0 0 0 0 0 0 0 10 121 121 121 121 121 121 121 121 121 121 121 121 121 121 121 121 121 10 121 121 121 121 121 121 5 5 30 30 30 30 30 30 30 30 30 30 30 30 30 30 30 30 30 30 30 30 30 30 30 5 5 10 23 47 38 85 10 1 19 30 30 10 10 19 30 30 30 10 0 0 0 0 0 0 0 0 0 0 0 0 0 0 0 0 0 0 0 0 0 7 121 121 121 121 121 121 121 121 121 121 121 121 121 121 121 121 121 121 5 121 121 121 121 121 121 10 1 30 30 30 30 30 30 30 30 30 30 30 30 30 30 30 30 30 30 30 30 30 30 30 30 30 19 10 1 0 1 5 30 30 30 30 30 5 0 0 0 1 5 0 0 0 0 0 0 0 0 0 0 0 0 0 0 0 0 0 0 0 0 0 23 121 121 121 121 121 121 121 121 121 121 121 121 121 121 121 121 121 121 10 121 121 121 121 121 121 85 0 30 30 30 30 30 30 30 30 30 30 30 30 30 30 30 30 30 30 30 30 30 30 19 5 1 10 30 30 30 30 30 30 30 30 30 30 30 30 19 30 5 0 0 0 0 0 0 0 0 0 0 0 0 0 0 0 0 0 0 0 0 0 5 121 121 121 121 121 121 121 121 121 121 121 121 121 121 121 121 121 121 121 5 121 121 121 121 121 121 121 0 30 30 30 30 30 30 30 30 30 30 30 30 30 30 30 30 30 30 30 30 30 30 30 30 19 1 0 5 30 30 30 30 10 1 19 30 30 30 30 30 1 0 0 0 0 0 0 0 0 0 0 0 0 0 0 0 0 0 0 0 0 0 23 121 121 121 121 121 121 121 121 121 121 121 121 121 121 121 121 121 121 121 10 121 121 121 121 121 121 121 1 10 30 30 30 30 30 30 30 30 30 30 30 30 30 30 30 30 30 30 30 30 30 30 30 30 30 30 1 0 1 10 19 30 0 1 5 5 1 0 0 37 0 0 0 0 0 0 0 0 0 0 0 0 0 0 0 0 0 0 0 0 5 71 121 121 121 121 121 121 121 121 121 121 121 121 121 121 121 121 121 121 85 10 121 121 121 121 121 121 121 23 5 30 30 30 30 30 30 30 30 30 30 30 30 30 30 30 30 30 30 30 30 30 30 30 10 19 30 30 30 30 5 5 10 10 19 30 30 30 5 37 0 0 0 0 0 0 0 0 0 0 0 0 0 0 0 0 0 0 0 0 0 5 121 121 121 121 121 121 121 121 121 121 121 121 121 121 121 121 121 121 121 23 23 121 121 121 121 121 121 121 121 1 30 30 30 30 30 30 30 30 30 30 30 30 30 30 30 30 30 30 30 30 30 30 30 30 1 0 10 30 30 30 30 30 30 19 14 30 10 0 0 0 0 0 0 0 0 0 0 0 0 0 0 0 0 0 0 0 0 0 0 5 47 121 121 121 121 121 121 121 121 121 121 121 121 121 121 121 121 121 121 121 10 47 121 121 121 121 121 121 121 121 10 5 30 30 30 30 30 30 30 30 30 30 30 30 30 30 30 30 30 30 30 30 30 30 30 30 10 1 5 30 19 1 0 30 30 30 23 0 0 0 0 0 0 0 0 0 0 0 0 0 0 0 0 0 0 0 0 0 0 0 5 121 121 121 121 121 121 121 121 121 121 121 121 121 121 121 121 121 121 121 121 5 121 121 121 121 121 121 121 121 121 121 10 10 30 30 30 30 30 30 30 30 30 30 30 30 30 30 30 30 30 30 30 30 30 30 30 30 30 30 19 30 10 1 5 30 23 0 0 0 0 0 0 0 0 0 0 0 0 0 0 0 0 0 0 0 0 0 0 0 5 23 121 121 121 121 121 121 121 121 121 121 121 121 121 121 121 121 121 121 121 121 3 121 121 121 121 121 121 121 121 121 121 121 23 10 30 30 30 30 30 30 30 30 30 30 30 30 30 30 30 30 30 30 30 30 30 30 30 30 30 30 30 30 30 30 23 0 0 0 0 0 0 0 0 0 0 0 0 0 0 0 0 0 0 0 0 0 0 0 0 1 121 121 121 121 121 121 121 121 121 121 121 121 121 121 121 121 121 121 121 121 23 5 121 121 121 121 121 121 121 121 121 121 121 121 23 1 30 30 30 30 30 30 30 30 30 30 30 30 30 30 30 30 30 30 30 30 0 1 0 10 10 19 30 30 7 0 0 0 0 0 0 0 0 0 0 0 0 0 0 0 0 0 0 0 0 0 0 0 0 37 10 121 121 121 121 121 121 121 121 121 121 121 121 121 121 121 121 121 121 121 121 5 1 5 23 71 121 121 121 121 121 121 121 121 121 121 1 0 19 30 30 30 30 30 30 30 30 30 30 30 30 30 30 30 30 30 30 30 30 19 30 30 30 5 7 0 0 0 0 0 0 0 0 0 0 0 0 0 0 0 0 0 0 0 0 0 0 0 0 0 0 121 121 121 121 121 121 121 121 121 121 121 121 121 121 121 121 121 121 121 121 47 37 0 0 37 7 18 5 10 23 23 38 23 5 1 5 23 23 1 10 30 30 30 30 30 30 30 30 30 30 30 30 30 1 0 30 30 30 30 30 30 30 1 37 0 0 0 0 0 0 0 0 0 0 0 0 0 0 0 0 0 0 0 0 0 0 0 0 0 0 5 121 121 121 121 121 121 121 121 121 121 121 121 121 121 121 121 121 121 121 121 10 0 0 0 0 0 0 0 0 0 0 0 0 0 0 38 121 121 121 23 10 19 30 30 30 30 30 30 30 30 30 19 30 30 5 30 30 30 30 30 1 0 0 5 7 5 7 0 0 0 0 0 0 0 0 0 0 0 0 0 0 0 0 0 0 0 0 0 0 5 47 121 121 121 121 121 121 121 121 121 121 121 121 121 121 121 121 121 121 121 121 7 0 0 0 0 0 0 0 0 0 0 0 0 0 0 0 5 30 121 121 121 38 3 30 30 30 30 30 30 30 30 1 30 30 30 30 30 19 5 0 5 0 1 47 121 121 10 7 0 0 0 0 0 0 0 0 0 0 0 0 0 0 0 0 0 0 0 0 0 1 121 121 121 121 121 121 121 121 121 121 121 121 121 121 121 121 121 121 121 121 5 0 0 0 0 0 0 0 0 0 0 0 0 0 0 0 0 0 7 1 85 121 121 121 23 10 30 30 30 30 30 30 30 30 30 30 30 0 1 5 71 23 10 121 121 121 121 121 1 0 0 0 0 0 0 0 0 0 0 0 0 0 0 0 0 0 0 0 0 37 10 121 121 121 121 121 121 121 121 121 121 121 121 121 121 121 121 121 121 121 47 30 0 0 0 0 0 0 0 0 0 0 0 0 0 0 0 0 0 0 37 0 23 121 121 121 121 23 5 10 19 30 30 30 30 5 1 0 10 121 121 85 10 121 121 121 121 121 121 5 37 0 0 0 0 0 0 0 0 0 0 0 0 0 0 0 0 0 0 0 5 47 121 121 121 121 121 121 121 121 121 121 121 121 121 121 121 121 121 121 121 5 0 0 0 0 0 0 0 0 0 0 0 0 0 0 0 0 0 0 0 0 0 0 5 121 121 121 121 121 5 1 1 0 1 1 0 0 121 121 121 121 23 47 121 121 121 121 121 121 47 5 0 0 0 0 0 0 0 0 0 0 0 0 0 0 0 0 0 0 0 5 121 121 121 121 121 121 121 121 121 121 121 121 121 121 121 121 121 121 121 10 0 0 0 0 0 0 0 0 0 0 0 0 0 0 0 0 0 0 0 0 0 0 0 5 0 121 121 121 121 121 121 47 23 121 85 5 121 121 121 121 121 38 121 121 121 121 121 121 121 121 1 0 0 0 0 0 0 0 0 0 0 0 0 0 0 0 0 0 0 0 23 121 121 121 121 121 121 121 121 121 121 121 121 121 121 121 121 121 121 23 0 0 0 0 0 0 0 0 0 0 0 0 0 0 0 0 0 0 0 0 0 0 0 0 0 13 0 121 121 121 121 121 121 121 121 23 38 121 121 121 121 47 23 121 121 121 121 121 121 121 121 5 0 0 0 0 0 0 0 0 0 0 0 0 0 0 0 0 0 0 7 121 121 121 121 121 121 121 121 121 121 121 121 121 121 121 121 121 121 47 18 0 0 0 0 0 0 0 0 0 0 0 0 0 0 0 0 0 0 0 0 0 0 0 0 0 0 18 1 121 121 121 121 121 121 121 71 121 121 121 121 121 23 47 121 121 121 121 121 121 121 121 5 0 0 0 0 0 0 0 0 0 0 0 0 0 0 0 0 0 0 5 121 121 121 121 121 121 121 121 121 121 121 121 121 121 121 121 121 38 5 0 0 0 0 0 0 0 0 0 0 0 0 0 0 0 0 0 0 0 0 0 0 0 0 0 0 0 0 18 10 121 121 121 121 121 121 121 121 121 121 121 121 10 121 121 121 121 121 121 121 121 85 7 0 0 0 0 0 0 0 0 0 0 0 0 0 0 0 0 0 0 47 121 121 121 121 121 121 121 121 121 121 121 121 121 121 121 121 121 5 0 0 0 0 0 0 0 0 0 0 0 0 0 0 0 0 0 0 0 0 0 0 0 0 0 0 0 0 0 0 5 23 121 121 121 121 121 121 121 121 121 121 85 10 121 121 121 121 121 121 121 121 47 37 0 0 0 0 0 0 0 0 0 0 0 0 0 0 0 0 0 0 121 121 121 121 121 121 121 121 121 121 121 121 121 121 121 121 121 5 163 0 0 0 0 0 0 0 0 0 0 0 0 0 0 0 0 0 0 0 0 0 0 0 0 0 0 0 0 0 0 0 1 47 121 121 121 121 121 121 121 121 121 23 10 121 121 121 121 121 121 121 121 23 0 0 0 0 0 0 0 0 0 0 0 0 0 0 0 0 0 0 85 121 121 121 121 121 121 121 121 121 121 121 121 121 121 121 121 5 0 0 0 0 0 0 0 0 0 0 0 0 0 0 0 0 0 0 0 0 0 0 0 0 0 0 0 0 0 0 0 0 0 0 5 85 121 121 121 121 121 121 121 121 5 47 121 121 121 121 121 121 121 121 5 0 0 0 0 0 0 0 0 0 0 0 0 0 0 0 0 0 0 71 121 121 121 121 121 121 121 121 121 121 121 121 121 121 121 5 0 0 0 0 0 0 0 0 0 0 0 0 0 0 0 0 0 0 0 0 0 0 0 0 0 0 0 0 0 0 0 0 0 0 0 0 5 121 121 121 121 121 121 121 121 3 121 121 121 121 121 121 121 121 23 37 0 0 0 0 0 0 0 0 0 0 0 0 0 0 0 0 0 163 121 121 121 121 121 121 121 121 121 121 121 121 121 121 121 5 0 0 0 0 0 0 0 0 0 0 0 0 0 0 0 0 0 0 0 0 0 0 0 0 0 0 0 0 0 0 0 0 0 0 0 0 0 0 10 121 121 121 121 121 121 23 10 121 121 121 121 121 121 121 121 1 0 0 0 0 0 0 0 0 0 0 0 0 0 0 0 0 0 0 121 121 121 121 121 121 121 121 121 121 121 121 121 121 121 5 0 0 0 0 0 0 0 0 0 0 0 0 0 0 0 0 0 0 0 0 0 0 0 0 0 0 0 0 0 0 0 0 0 0 0 0 0 0 0 0 30 121 121 121 121 121 10 85 121 121 121 121 121 121 121 5 0 0 0 0 0 0 0 0 0 0 0 0 0 0 0 0 0 0 0 121 121 121 121 121 121 121 121 121 121 121 121 121 121 0 1 37 0 0 0 0 0 0 0 0 0 0 0 0 0 0 0 0 0 0 0 0 0 0 0 0 0 0 0 0 0 0 0 0 0 0 0 0 0 0 0 0 47 121 121 121 23 10 121 121 121 121 121 121 121 10 18 0 0 0 0 0 0 0 0 0 0 0 0 0 0 0 0 0 0 163 121 121 121 121 121 121 121 121 121 121 121 121 121 5 3 10 5 0 0 0 5 0 0 0 0 0 0 0 0 0 0 0 0 0 0 0 0 0 0 0 0 0 0 0 0 0 0 0 0 0 0 0 0 0 0 0 0 0 23 121 121 0 47 121 121 121 121 121 121 23 5 0 0 0 0 0 0 0 0 0 0 0 0 0 0 0 0 0 0 0 85 121 121 121 121 121 121 121 121 121 121 121 85 5 38 121 121 121 121 121 47 5 0 254 0 0 0 0 0 0 0 0 0 0 0 0 0 0 0 0 0 0 0 0 0 0 0 0 0 0 0 0 0 0 0 0 0 0 0 0 23 121 1 121 121 121 121 121 121 23 13 0 0 0 0 0 0 0 0 0 0 0 0 0 0 0 0 0 0 0 0 121 121 121 121 121 121 121 121 121 121 121 47 10 121 121 121 121 121 121 121 121 121 47 5 0 0 0 0 0 0 0 0 0 0 0 0 0 0 0 0 0 0 0 0 0 0 0 0 0 0 0 0 0 0 0 0 0 0 0 0 0 5 0 10 121 121 121 47 5 37 0 0 0 0 0 0 0 0 0 0 0 0 0 0 0 0 0 0 0 0 30 121 121 121 121 121 121 121 121 121 85 38 23 121 121 121 121 121 121 121 121 121 121 121 10 0 0 0 0 0 0 0 0 0 0 0 0 0 0 0 0 0 0 0 0 0 0 0 0 0 0 0 0 0 0 0 0 0 0 0 0 0 0 0 0 1 5 5 7 0 0 0 0 0 0 0 0 0 0 0 0 0 0 0 0 0 0 0 0 0 0 23 121 121 121 121 121 121 121 121 38 10 47 121 121 121 121 121 121 121 121 121 121 121 121 23 0 0 0 0 0 0 0 0 0 0 0 0 0 0 0 0 0 0 0 0 0 0 0 0 0 0 0 0 0 0 0 0 0 0 0 0 0 0 0 0 188 0 0 0 0 0 0 0 0 0 0 0 0 0 0 0 0 0 0 0 0 0 0 0 0 0 71 121 121 121 121 121 121 121 121 121 121 121 121 121 121 121 121 121 121 121 121 121 121 121 10 0 0 0 0 0 0 0 0 0 0 0 0 0 0 0 0 0 0 0 0 0 0 0 0 0 0 0 0 0 0 0 0 0 0 0 0 0 0 0 0 0 0 0 0 0 0 0 0 0 0 0 0 0 0 0 0 0 0 0 0 0 0 0 0 0 10 121 121 121 121 121 121 121 121 121 121 121 121 121 121 121 121 121 121 121 121 121 121 121 47 5 0 0 0 0 0 0 0 0 0 0 0 0 0 0 0 0 0 0 0 0 0 0 0 0 0 0 0 0 0 0 0 0 0 0 0 0 0 0 0 0 0 0 0 0 0 0 0 0 0 0 0 0 0 0 0 0 0 0 0 0 0 0 0 0 0 5 47 121 121 121 121 121 121 121 121 121 121 121 121 121 121 121 121 121 121 121 121 121 23 1 0 0 0 0 0 0 0 0 0 0 0 0 0 0 0 0 0 0 0 0 0 0 0 0 0 0 0 0 0 0 0 0 0 0 0 0 0 0 0 0 0 0 0 0 0 0 0 0 0 0 0 0 0 0 0 0 0 0 0 0 0 0 0 0 0 0 0 5 121 121 121 121 121 121 121 121 121 121 121 121 121 121 121 121 121 121 121 47 5 7 0 0 0 0 0 0 0 0 0 0 0 0 0 0 0 0 0 0 0 0 0 0 0 0 0 0 0 0 0 0 0 0 0 0 0 0 0 0 0 0 0 0 0 0 0 0 0 0 0 0 0 0 0 0 0 0 0 0 0 0 0 0 0 0 0 0 0 0 0 30 47 121 121 121 121 121 121 121 121 121 121 121 121 121 121 121 23 5 30 0 0 0 0 0 0 0 0 0 0 0 0 0 0 0 0 0 0 0 0 0 0 0 0 0 0 0 0 0 0 0 0 0 0 0 0 0 0 0 0 0 0 0 0 0 0 0 0 0 0 0 0 0 0 0 0 0 0 0 0 0 0 0 0 0 0 0 0 0 0 0 0 0 37 5 5 5 38 47 85 121 85 121 85 38 23 5 5 37 0 0 0 0 0 0 0 0 0 0 0 0 0 0 0 0 0 0 0 0 0 0 0 0 0 0 0 0 0 0 0 0 0 0 0 0 0 0 0 0 0 0 0 0 0 0 0 0 0 0 0 0 0 0 0 0 0 0 0 0 0 0 0 0 0 0 0 0 0 0 0 0 0 0 0 0 0 0 37 7 5 0 1 0 1 0 7 37 0 0 0 0 0 0 0 0 0 0 0 0 0 0 0 0 0 0 0 0 0 0 0 0 0 0 0 0 0 0 0 0 0 0 0 0 0 0 0 0 0 0 0 0 0 0 0 0 0 0 0 0 0 0 0 0 0 0 0 0 0 0 0 0 0 0 0 0 0 0 0 0 0 0 