P2
# Komentarz
91 149
255
0 0 0 0 0 0 0 0 0 0 0 0 0 0 0 0 0 0 0 0 0 0 0 0 0 0 0 0 0 0 0 0 0 0 0 0 0 0 0 0 0 0 0 0 0 0 0 0 0 0 0 87 0 78 87 181 0 0 0 0 0 0 0 0 0 0 0 0 0 0 0 0 0 0 0 0 0 0 0 0 0 0 0 0 0 0 0 0 0 0 0 0 0 0 0 0 0 0 0 0 0 0 0 0 0 0 0 0 0 0 0 0 0 0 0 0 0 0 0 0 0 0 0 0 0 0 0 0 0 0 0 0 0 0 0 0 0 0 0 0 138 42 131 188 188 182 78 0 0 0 0 0 0 0 0 0 0 0 0 0 0 0 0 0 0 0 0 0 0 0 0 0 0 0 0 0 0 0 0 0 0 0 0 0 0 0 0 0 0 0 0 0 0 0 0 0 0 0 0 0 0 0 0 0 0 0 0 0 0 0 0 0 0 0 0 0 0 0 0 0 0 0 0 0 0 0 0 0 0 0 78 131 220 220 220 220 220 208 106 0 0 0 0 0 0 0 0 0 0 0 0 0 0 0 0 0 0 0 0 0 0 0 0 0 0 0 0 0 0 0 0 0 0 0 0 0 0 0 0 0 0 0 0 0 0 0 0 0 0 0 0 0 0 0 0 0 0 0 0 0 0 0 0 0 0 0 0 0 0 0 0 0 0 0 0 0 0 0 0 255 78 175 220 220 220 220 220 220 220 131 0 0 0 0 0 0 0 0 0 0 0 0 0 0 0 0 0 0 0 0 0 0 0 0 0 0 0 0 0 0 0 0 0 0 0 0 0 0 0 0 0 0 0 0 0 0 0 0 0 0 0 0 0 0 0 0 0 0 0 0 0 0 0 0 0 0 0 0 0 0 0 0 0 0 0 0 0 0 0 0 78 146 220 220 220 220 220 220 220 220 106 181 0 0 0 0 0 0 0 138 87 42 78 87 131 0 0 0 0 0 0 0 0 0 0 0 0 0 0 0 0 0 0 0 0 0 0 0 0 0 0 0 0 0 0 0 0 0 0 0 0 0 0 0 0 0 0 0 0 0 0 0 0 0 0 0 0 0 0 0 0 0 0 0 0 0 0 0 0 0 138 146 220 220 220 220 220 220 220 220 220 78 0 0 0 0 0 0 0 78 106 169 220 220 220 220 220 106 0 0 0 0 0 0 0 0 0 0 0 0 0 0 0 0 0 0 0 0 0 0 0 0 0 0 0 0 0 0 0 0 0 0 0 0 0 0 0 0 0 0 0 0 0 0 0 0 0 0 0 0 0 0 0 0 0 0 0 0 0 0 0 106 220 220 220 220 220 220 220 220 220 169 0 131 131 87 131 181 0 106 169 220 220 220 220 220 220 220 182 87 0 0 0 0 0 0 0 0 0 0 0 0 0 0 0 0 0 0 0 0 0 0 0 0 0 0 0 0 0 0 0 0 0 0 0 0 0 0 0 0 0 0 0 0 0 0 0 0 0 0 0 0 0 0 0 0 0 0 0 0 0 131 188 220 220 220 220 220 220 220 220 220 131 106 220 188 169 131 78 0 106 220 220 220 220 220 220 220 220 220 131 0 0 0 0 0 0 0 0 0 0 0 0 0 0 0 0 0 0 0 0 0 0 0 0 0 0 0 0 0 0 0 0 0 0 0 0 0 0 0 0 0 0 0 0 0 0 0 0 0 0 0 0 0 0 0 0 0 0 0 0 0 106 220 220 220 220 220 220 220 220 220 220 0 169 220 220 220 220 220 169 106 0 146 220 220 220 220 220 220 220 169 0 0 0 0 0 0 0 0 0 0 0 0 0 0 0 0 0 0 0 0 0 0 0 0 0 0 0 0 0 0 0 0 0 0 0 0 0 0 0 0 0 0 0 0 0 0 0 0 0 0 0 0 0 0 0 0 0 0 0 0 0 146 220 220 220 220 220 220 220 220 220 131 106 220 220 220 220 220 220 220 220 169 78 87 220 220 220 220 220 220 131 0 0 0 0 0 0 0 0 0 0 0 0 0 0 0 0 0 0 0 0 0 0 0 0 0 0 0 0 0 0 0 0 0 0 0 0 0 0 0 0 0 0 0 0 0 0 0 0 0 0 0 0 0 0 0 0 0 0 0 0 131 169 220 220 220 220 220 220 220 220 169 0 188 220 220 220 220 220 220 220 220 220 220 106 0 188 220 220 220 220 87 0 0 0 0 0 0 0 0 0 0 0 0 0 0 0 0 0 0 0 0 0 0 0 0 0 0 0 0 0 0 0 0 0 0 0 0 0 0 0 0 0 0 0 0 0 0 0 0 0 0 0 0 0 0 0 0 0 0 0 87 42 175 220 220 220 220 220 220 220 188 42 169 220 220 220 220 220 220 220 220 220 220 220 220 131 0 188 220 220 146 160 0 0 0 0 0 0 0 0 0 0 0 0 0 0 0 0 0 0 0 0 0 0 0 0 0 0 0 0 0 0 0 0 0 0 0 0 0 0 0 0 0 0 0 0 0 0 0 0 0 0 0 0 0 0 0 0 0 0 78 169 182 169 220 220 220 220 220 220 220 87 182 220 220 220 220 220 220 220 220 220 220 220 220 220 220 131 78 220 208 78 0 0 0 0 0 0 0 0 0 0 0 0 0 0 0 0 0 0 0 0 0 0 0 0 0 0 0 0 0 0 0 0 0 0 0 0 0 0 0 0 0 0 0 0 0 0 0 0 0 0 0 0 0 0 0 0 0 0 87 169 226 169 131 220 220 220 220 220 220 146 169 220 220 220 220 220 220 220 220 220 220 220 220 220 220 220 220 42 106 146 181 0 0 0 0 0 0 0 0 0 0 0 0 0 0 0 0 0 0 0 0 0 0 0 0 0 0 0 0 0 0 0 0 0 0 0 0 0 0 0 0 0 0 0 0 0 0 0 0 0 0 0 0 0 0 0 0 0 131 146 220 220 220 106 146 220 220 220 220 220 208 220 220 220 220 220 220 220 220 220 220 220 220 220 220 220 220 220 169 0 181 0 0 0 0 0 0 0 0 0 0 0 0 0 0 0 0 0 0 0 0 0 0 0 0 0 0 0 0 0 0 0 0 0 0 0 0 0 0 0 0 0 0 0 0 0 0 0 0 0 0 0 0 0 0 0 0 0 0 106 220 220 220 220 182 131 220 220 220 220 220 220 220 220 220 220 220 220 220 220 220 220 220 220 220 220 220 220 220 220 131 106 0 0 0 0 0 0 0 0 0 0 0 0 0 0 0 0 0 0 0 0 0 0 0 0 0 0 0 0 0 0 0 0 0 0 0 0 0 0 0 0 0 0 0 0 0 0 0 0 0 0 0 0 0 0 0 0 0 78 188 220 220 220 220 220 220 220 220 220 220 220 220 220 220 220 220 220 220 220 220 220 220 220 220 220 220 220 220 220 220 220 87 181 0 0 0 0 0 0 0 0 0 0 0 0 0 0 0 0 0 0 0 0 0 0 0 0 0 0 0 0 0 0 0 0 0 0 0 0 0 0 0 0 0 0 0 0 0 0 0 0 0 0 0 0 0 0 0 181 106 220 220 220 220 220 220 220 220 220 220 220 220 220 220 220 220 220 220 220 220 220 220 220 220 220 220 220 220 220 220 220 220 188 78 0 0 0 0 0 0 0 0 0 0 0 0 0 0 0 0 0 0 0 0 0 0 0 0 0 0 0 0 0 0 0 0 0 0 0 0 0 0 0 0 0 0 0 0 0 0 0 0 0 0 0 0 0 0 0 87 182 220 220 220 220 220 220 220 220 220 220 220 220 220 220 220 220 220 220 220 220 220 220 220 220 220 220 220 220 220 220 220 220 220 169 153 0 0 0 0 0 0 0 0 0 0 0 0 0 0 0 0 0 0 0 0 0 0 0 0 0 0 0 0 0 0 0 0 0 0 0 0 0 0 0 0 0 0 0 0 0 0 0 0 0 0 0 0 0 0 106 220 220 220 220 220 220 220 220 220 220 220 220 220 220 220 220 220 220 220 220 220 220 220 220 220 220 220 220 220 220 220 220 220 220 220 106 0 0 0 0 0 0 0 0 0 0 0 0 0 0 0 0 0 0 0 0 0 0 0 0 0 0 0 0 0 0 0 0 0 0 0 0 0 0 0 0 0 0 0 0 0 0 0 0 0 0 0 0 0 138 169 220 220 220 220 220 220 220 220 220 220 220 220 220 220 220 220 220 220 220 220 220 220 220 220 220 220 220 220 220 220 220 220 220 220 220 188 131 0 0 0 0 0 0 0 0 0 0 0 0 0 0 0 0 0 0 0 0 0 0 0 0 0 0 0 0 0 0 0 0 0 0 0 0 0 0 0 0 0 0 0 0 0 0 0 0 0 0 0 0 131 220 220 220 220 220 220 220 220 220 220 220 220 220 220 220 220 220 220 220 220 220 220 220 220 220 220 220 220 220 220 220 220 220 220 220 220 220 188 160 0 0 0 0 0 0 0 0 0 0 0 0 0 0 0 0 0 0 0 0 0 0 0 0 0 0 0 0 0 0 0 0 0 0 0 0 0 0 0 0 0 0 0 0 0 0 0 0 0 0 0 131 220 220 220 220 220 220 220 220 220 220 220 220 220 220 220 220 220 220 220 220 220 220 220 220 220 220 220 220 220 220 220 220 220 220 220 220 220 220 169 153 0 0 0 0 0 0 0 0 0 0 0 0 0 0 0 0 0 0 0 0 0 0 0 0 0 0 0 0 0 0 0 0 0 0 0 0 0 0 0 0 0 0 0 0 0 0 0 0 0 0 169 220 220 220 220 220 220 220 220 220 220 220 220 220 220 220 220 220 220 220 220 220 220 220 220 220 220 220 220 220 220 220 220 220 220 220 220 220 220 220 146 160 0 0 0 0 0 0 0 0 0 0 0 0 0 0 0 0 0 0 0 0 0 0 0 0 0 0 0 0 0 0 0 0 0 0 0 0 0 0 0 0 0 0 0 0 0 0 0 0 181 188 220 220 220 220 220 220 220 220 220 220 220 220 220 220 220 220 220 220 220 220 220 220 220 220 220 220 220 220 220 220 220 220 220 220 220 220 220 220 220 220 146 138 0 0 0 0 0 0 0 0 0 0 0 0 0 0 0 0 0 0 0 0 0 0 0 0 0 0 0 0 0 0 0 0 0 0 0 0 0 0 0 0 0 0 0 0 0 0 0 175 220 220 220 220 220 220 220 220 220 220 220 220 220 220 220 220 220 220 220 220 220 220 220 220 220 220 220 220 220 220 220 220 220 220 220 220 220 220 220 220 220 220 169 138 0 0 0 0 0 0 0 0 0 0 0 0 0 0 0 0 0 0 0 0 0 0 0 0 0 0 0 0 0 0 0 0 0 0 0 0 0 0 0 0 0 0 0 0 0 0 169 220 220 220 220 220 220 220 220 220 220 220 220 220 220 220 220 220 220 220 220 220 220 220 220 220 220 220 220 220 220 220 220 220 220 220 220 220 220 220 220 220 220 220 106 181 0 0 0 0 0 0 0 0 0 0 0 0 0 0 0 0 0 0 0 0 0 0 0 0 0 0 0 0 0 0 0 0 0 0 0 0 0 0 0 0 0 0 0 0 0 188 220 220 220 220 220 220 220 220 220 220 220 220 220 220 220 220 220 220 220 220 220 220 220 220 220 220 220 220 220 220 97 42 87 188 220 220 220 220 220 220 220 220 220 131 78 0 0 0 0 0 0 0 0 0 0 0 0 0 0 0 0 0 0 0 0 0 0 0 0 0 0 0 0 0 0 0 0 0 0 0 0 0 0 0 0 0 0 0 0 0 220 220 220 220 220 220 220 220 220 220 220 220 220 220 220 220 220 220 220 220 220 220 220 220 220 220 220 220 220 220 146 169 188 182 220 220 220 220 220 220 220 220 220 220 131 153 0 0 0 0 0 0 0 0 0 0 0 0 0 0 0 0 0 0 0 0 0 0 0 0 0 0 0 0 0 0 0 0 0 0 0 0 0 0 0 0 0 0 0 0 138 220 220 220 220 220 220 220 220 220 220 220 220 220 220 220 220 220 220 220 220 220 220 220 220 220 220 220 220 220 182 188 220 220 220 220 220 220 220 220 220 220 220 220 220 78 0 0 0 0 0 0 0 0 0 0 0 0 0 0 0 0 0 0 0 0 0 0 0 0 0 0 0 0 0 0 0 0 0 0 0 0 0 0 0 0 68 88 42 106 131 169 220 220 220 220 220 220 220 220 220 220 220 220 220 220 220 220 220 220 220 220 220 220 220 220 220 220 220 220 220 220 220 220 220 220 220 220 220 220 220 220 220 220 220 131 138 0 0 0 0 0 0 0 0 0 0 0 0 0 0 0 0 0 0 0 0 0 0 0 0 0 0 0 0 0 0 0 0 0 0 0 0 0 0 0 108 108 108 108 88 106 220 220 220 220 220 220 220 220 220 220 220 220 220 220 220 220 220 220 220 220 220 220 220 220 220 220 220 220 220 220 220 220 220 220 220 220 220 220 220 220 220 220 220 169 153 0 0 0 0 0 0 0 0 0 0 0 0 0 0 0 0 0 0 0 0 0 0 0 0 0 0 0 0 0 0 0 0 0 0 0 0 0 0 0 0 88 108 108 108 68 188 220 220 220 220 220 220 220 220 220 220 220 220 220 220 220 220 220 220 220 220 220 220 220 220 220 220 220 220 220 220 220 220 220 220 220 220 220 220 220 220 220 220 146 0 0 0 0 0 0 0 0 0 0 0 0 0 0 0 0 0 0 0 0 0 0 0 0 0 0 0 0 0 0 0 0 0 0 0 0 0 0 0 0 0 0 68 108 108 68 146 220 220 220 220 220 220 220 220 220 220 220 220 220 220 220 220 220 220 220 220 220 220 220 220 220 220 220 220 220 220 220 220 220 208 106 78 220 220 220 220 220 220 208 153 0 0 0 0 0 0 0 0 0 0 0 0 0 0 0 0 0 0 0 0 0 0 0 0 0 0 0 0 0 0 0 0 0 0 0 0 0 0 0 0 0 0 68 88 108 131 220 220 220 220 220 220 220 220 220 220 220 220 220 220 220 220 220 220 220 220 220 220 220 220 220 220 220 220 220 220 220 220 220 220 78 0 87 220 220 220 220 220 220 220 131 160 0 0 0 0 0 0 0 0 0 0 0 0 0 0 0 0 0 0 0 0 0 0 0 0 0 0 0 0 0 0 0 0 0 0 0 0 0 0 0 0 0 108 88 106 220 220 220 220 220 220 220 220 220 220 220 220 220 220 220 220 220 220 220 220 220 220 220 220 220 220 220 220 220 220 220 220 220 220 131 0 0 146 220 220 220 220 220 220 220 220 146 131 0 0 0 0 0 0 0 0 0 0 0 0 0 0 0 0 0 0 0 0 0 0 0 0 0 0 0 0 0 0 0 0 0 0 0 0 0 0 0 0 139 108 97 220 220 220 220 220 220 220 220 220 220 220 220 220 220 220 220 220 220 220 220 220 220 220 220 220 220 220 220 220 220 220 220 220 220 188 124 146 220 220 220 220 220 220 220 220 220 220 220 188 0 0 0 0 0 0 0 0 0 0 0 0 0 0 0 0 0 0 0 0 0 0 0 0 0 0 0 0 0 0 0 0 0 0 0 0 0 0 0 108 108 68 146 220 220 220 220 220 220 220 220 220 220 220 220 220 220 220 220 220 220 220 220 220 220 220 220 220 220 220 220 220 220 220 220 220 220 220 220 220 220 220 220 220 220 220 220 220 220 220 220 220 131 0 0 0 0 0 0 0 0 0 0 0 0 0 0 0 0 0 0 0 0 0 0 0 0 0 0 0 0 0 0 0 0 0 0 0 0 0 139 108 108 88 208 220 220 220 220 220 220 220 220 220 220 220 220 220 220 220 220 220 220 220 220 220 220 220 220 220 220 220 220 220 220 220 220 220 220 220 220 220 220 220 220 220 220 220 220 220 220 220 220 220 78 181 0 0 0 0 0 0 0 0 0 0 0 0 0 0 0 0 0 0 0 0 0 0 0 0 0 0 0 0 0 0 0 0 0 0 0 108 108 108 108 106 220 220 220 220 220 220 220 220 220 220 220 220 220 220 220 220 220 220 220 220 220 220 220 220 220 220 220 220 220 220 220 220 220 220 220 220 220 220 220 220 220 220 220 220 220 220 220 220 220 188 78 0 0 0 0 0 0 0 0 0 0 0 0 0 0 0 0 0 0 0 0 0 0 0 0 0 0 0 0 0 0 0 0 0 0 0 139 108 108 108 88 131 220 220 220 220 220 220 220 220 220 220 220 220 220 220 220 220 220 220 220 220 220 220 220 220 220 220 220 220 220 220 220 220 220 220 220 220 220 220 220 220 220 220 220 220 220 220 131 97 131 87 106 0 0 0 0 0 0 0 0 0 0 0 0 0 0 0 0 0 0 0 0 0 0 0 0 0 0 0 0 0 0 0 0 0 0 108 108 108 108 108 88 131 220 220 220 220 220 220 220 220 220 220 220 220 220 220 220 220 220 220 220 220 220 220 220 220 220 220 220 220 220 220 220 220 220 220 220 220 220 220 220 220 220 220 220 220 124 0 0 0 0 0 0 0 0 0 0 0 0 0 0 0 0 0 0 0 0 0 0 0 0 0 0 0 0 0 0 0 0 0 0 0 0 0 0 0 108 108 108 108 108 108 88 169 220 220 220 220 220 220 220 220 220 220 220 220 220 220 220 220 220 220 220 220 220 220 220 220 220 220 220 220 220 220 220 220 220 220 220 220 220 220 220 220 220 220 220 87 0 0 0 0 0 181 0 0 0 0 0 0 0 0 0 0 0 0 0 0 0 0 0 0 0 0 0 0 0 0 0 0 0 0 0 0 0 0 0 108 108 108 108 108 108 108 42 188 220 220 220 220 220 220 220 220 220 220 220 220 220 220 220 220 220 220 220 220 220 220 220 220 220 220 220 220 220 220 220 220 220 220 220 220 220 220 220 220 220 220 87 0 0 0 0 0 0 0 0 0 0 0 0 0 0 0 0 0 0 0 0 0 0 0 0 0 0 0 0 0 0 0 0 0 0 0 0 0 0 97 108 108 108 108 132 108 108 108 68 188 220 220 220 220 220 220 220 220 220 220 220 220 220 220 220 220 220 220 220 220 220 220 220 220 220 182 208 220 220 220 220 220 220 220 220 220 220 220 220 220 220 131 0 0 0 0 0 0 0 0 0 0 0 0 0 0 0 0 0 0 0 0 0 0 0 0 0 0 0 0 0 0 0 0 0 0 0 0 0 146 108 108 116 132 108 108 116 108 108 88 97 208 220 220 220 220 220 220 220 220 220 220 220 220 220 220 220 220 220 220 220 220 220 220 188 78 0 42 188 220 220 220 220 220 220 220 220 220 220 220 220 220 182 0 0 0 0 131 0 0 0 0 0 0 0 0 0 0 0 0 0 0 0 0 0 0 0 0 0 0 0 0 0 0 0 0 0 0 0 0 68 108 108 108 108 108 108 108 108 108 108 88 78 220 220 220 220 220 220 220 220 220 220 220 220 220 220 220 220 220 220 220 220 220 182 131 146 42 54 220 220 220 220 220 220 220 220 220 220 220 220 220 220 220 131 0 0 0 0 0 0 0 0 0 0 0 0 0 0 0 0 0 0 0 0 0 0 0 0 0 0 0 0 0 0 0 0 0 0 0 97 108 108 108 108 108 108 108 108 108 108 108 108 88 87 220 220 220 220 220 220 220 220 220 220 220 220 220 220 220 220 220 220 220 220 188 220 208 0 0 131 220 220 220 220 220 220 220 220 220 220 220 220 220 220 220 131 42 138 0 0 0 0 0 0 0 0 0 0 0 0 0 0 0 0 0 0 0 0 0 0 0 0 0 0 0 0 0 0 0 0 108 108 108 108 108 108 108 108 108 108 132 108 108 108 108 78 220 220 220 220 220 220 220 220 220 220 220 220 220 220 220 220 220 220 220 220 220 188 0 0 0 188 220 220 220 220 220 220 220 220 220 220 220 220 220 220 169 87 0 0 0 0 0 0 0 0 0 0 0 0 0 0 0 0 0 0 0 0 0 0 0 0 0 0 0 0 0 0 0 0 0 88 108 108 108 108 139 108 108 108 108 108 116 108 108 108 88 97 208 220 220 220 220 220 220 220 220 220 220 220 220 220 220 220 220 220 220 220 169 0 0 0 87 220 220 220 220 220 220 220 220 220 220 220 220 220 169 87 0 0 0 0 0 0 0 0 0 0 0 0 0 0 0 0 0 0 0 0 0 0 0 0 0 0 0 0 0 0 0 0 0 0 88 108 108 116 108 108 108 108 108 116 108 108 108 108 108 108 88 97 188 220 220 220 220 220 220 220 220 220 220 220 220 220 220 220 220 220 220 220 42 0 0 0 146 220 220 220 220 220 220 220 220 220 220 220 146 131 0 0 0 0 0 0 0 0 0 0 0 0 0 0 0 0 0 0 0 0 0 0 0 0 0 0 0 0 0 0 0 0 0 0 138 108 108 108 108 108 108 108 108 108 132 108 108 108 108 108 108 108 108 42 188 220 220 220 220 220 220 220 220 220 220 220 220 220 220 220 220 220 220 106 0 0 0 0 146 220 220 220 220 220 220 220 220 169 131 181 0 0 0 0 0 0 0 0 0 0 0 0 0 0 0 0 0 0 0 0 0 0 0 0 0 0 0 0 0 0 0 0 0 0 0 106 108 108 108 108 132 108 108 108 108 108 108 108 108 108 132 108 108 108 108 68 169 220 220 220 220 220 220 220 220 220 220 220 220 220 220 220 220 220 169 0 0 0 0 87 182 220 220 220 208 182 131 106 160 0 0 0 0 0 0 0 0 0 0 0 0 0 0 0 0 0 0 0 0 0 0 0 0 0 0 0 0 0 0 0 0 0 0 0 0 0 68 108 108 132 108 108 108 116 108 108 108 108 108 132 108 116 108 108 108 108 108 68 131 220 220 220 220 220 220 220 220 220 220 220 220 220 220 220 220 220 78 0 0 0 146 208 131 175 188 181 181 0 0 0 0 0 0 0 0 0 0 0 0 0 0 0 0 0 0 0 0 0 0 0 0 0 0 0 0 0 0 0 0 0 0 0 0 0 0 0 138 108 108 108 108 108 108 108 108 108 132 108 108 108 116 108 108 108 108 108 108 108 108 68 131 220 220 220 220 220 220 220 220 220 220 220 220 220 220 220 220 146 0 0 0 169 131 0 0 0 0 0 0 0 0 0 0 0 0 0 0 0 0 0 0 0 0 0 0 0 0 0 0 0 0 0 0 0 0 0 0 0 0 0 0 0 0 0 0 0 0 68 108 108 108 116 108 108 108 108 108 108 116 108 108 108 108 108 108 108 132 108 108 108 108 88 131 220 220 220 220 220 220 220 220 220 220 220 220 220 220 220 208 42 0 87 188 131 0 0 0 0 0 0 0 0 0 0 0 0 0 0 0 0 0 0 0 0 0 0 0 0 0 0 0 0 0 0 0 0 0 0 0 0 0 0 0 0 0 0 0 181 68 108 108 108 108 108 108 132 108 108 108 108 108 108 108 108 108 108 108 116 108 108 108 108 108 68 106 208 220 220 220 220 220 220 220 220 220 220 220 220 220 220 169 106 182 106 181 0 0 0 0 0 0 0 0 0 0 0 0 0 0 0 0 0 0 0 0 0 0 0 0 0 0 0 0 0 0 0 0 0 0 0 0 0 0 0 0 0 0 0 97 108 108 108 108 108 108 108 108 108 108 108 108 108 108 108 108 108 116 108 108 108 108 108 108 108 108 88 68 169 220 220 220 220 220 220 220 220 220 220 220 220 220 220 220 188 124 131 131 131 146 131 131 131 97 131 138 181 0 0 0 0 0 0 0 0 0 0 0 0 0 0 0 0 0 0 0 0 0 0 0 0 0 0 0 0 0 0 0 0 181 108 108 108 108 132 108 108 116 108 108 108 116 132 108 108 132 108 108 108 132 108 108 108 132 108 108 108 108 108 68 131 220 220 220 220 220 220 220 220 220 220 131 78 42 42 131 220 220 220 220 220 220 220 220 220 220 220 188 146 131 181 0 0 0 0 0 0 0 0 0 0 0 0 0 0 0 0 0 0 0 0 0 0 0 0 0 0 0 0 0 88 108 108 108 108 116 108 108 108 108 108 132 108 108 108 108 116 108 108 108 108 108 108 88 88 108 108 108 108 108 108 42 106 220 220 220 220 220 220 220 169 106 87 68 108 108 116 220 220 220 220 220 220 220 220 220 220 220 220 220 220 169 131 0 0 0 0 0 0 0 0 0 0 0 0 0 0 0 0 0 0 0 0 0 0 0 0 0 0 131 88 108 108 108 116 108 108 108 108 108 108 108 108 108 108 108 108 108 108 108 108 108 108 108 108 88 68 68 108 108 108 108 108 68 78 169 220 220 220 220 220 220 220 208 42 108 108 42 220 220 220 220 220 220 220 220 220 220 220 220 220 220 220 220 169 106 0 0 0 0 0 0 0 0 0 0 0 0 0 0 0 0 0 0 0 0 0 0 0 0 68 108 108 108 108 108 108 108 108 132 108 108 108 108 108 108 108 108 108 108 108 108 108 108 108 108 108 108 68 68 88 108 108 108 108 108 68 131 220 220 220 220 220 220 220 42 108 88 131 220 220 220 220 220 220 220 220 220 220 220 220 220 220 220 220 220 188 131 0 0 0 0 0 0 0 0 0 0 0 0 0 0 0 0 0 0 0 0 0 0 0 68 108 108 108 132 108 108 108 108 108 108 116 108 108 108 116 108 108 108 132 108 116 108 108 132 116 108 108 108 88 68 88 108 108 108 108 108 88 42 182 220 220 220 220 182 68 108 88 169 220 220 220 220 220 220 220 220 220 220 220 220 220 220 220 220 220 220 182 131 0 0 0 0 0 0 0 0 0 0 0 0 0 0 0 0 0 0 0 0 0 0 181 42 108 108 108 108 108 108 108 116 108 108 108 108 108 108 132 108 108 116 108 108 108 108 108 108 108 108 108 108 108 88 88 108 108 108 108 108 108 68 106 188 220 220 146 88 108 68 146 220 220 220 220 220 220 220 220 220 220 220 220 220 220 220 220 220 220 220 169 138 0 0 0 0 0 0 0 0 0 0 0 0 0 0 0 0 0 0 0 0 0 0 42 88 108 108 116 108 108 132 108 108 108 132 108 108 108 108 108 108 108 108 108 108 108 108 108 108 108 108 108 108 108 68 108 108 139 108 108 108 108 88 68 131 188 131 108 108 0 131 220 220 220 220 220 220 220 220 220 220 220 220 220 220 220 220 220 220 220 220 87 181 0 0 0 0 0 0 0 0 0 0 0 0 0 0 0 0 0 0 0 0 0 0 68 108 108 108 132 108 108 108 108 108 108 108 108 108 108 108 108 108 108 132 108 108 108 108 108 108 132 116 108 108 88 88 108 88 108 108 108 108 108 108 68 0 68 108 108 0 106 220 220 220 182 220 220 220 220 220 220 220 220 220 220 220 220 220 220 188 220 124 87 0 0 0 0 0 0 0 0 0 0 0 0 0 0 0 0 0 0 0 0 138 188 78 68 108 108 108 108 108 108 108 108 108 108 116 108 88 108 116 108 108 108 116 108 108 132 116 108 108 108 108 108 88 88 108 68 108 108 108 108 108 108 108 108 42 108 108 68 78 220 220 220 208 146 220 220 220 220 220 220 220 220 220 220 220 220 169 97 131 42 146 106 0 0 0 0 0 0 0 0 0 0 0 0 0 0 0 0 0 0 0 146 220 169 0 108 108 108 108 108 116 88 108 108 108 108 108 68 108 108 108 108 108 108 108 108 108 108 108 108 108 108 108 108 42 108 68 108 108 108 108 108 108 108 108 108 108 108 88 87 220 220 220 220 131 169 220 220 220 220 220 220 220 220 220 220 169 97 208 220 208 202 124 0 0 0 0 0 0 0 0 0 0 0 0 0 0 0 0 0 0 0 188 220 220 138 42 108 108 116 108 108 108 88 108 132 108 68 88 108 108 132 108 108 108 108 108 108 108 108 108 108 108 108 108 68 88 68 108 108 139 108 88 108 132 108 108 108 108 108 68 208 220 220 220 131 42 208 220 220 220 220 220 220 220 220 188 106 188 220 220 220 188 138 0 0 0 0 0 0 0 0 0 0 0 0 0 0 0 0 0 0 146 220 220 220 220 78 108 108 108 108 108 108 88 108 108 108 68 88 108 108 108 108 108 108 108 108 108 108 108 108 132 108 108 108 108 42 68 108 108 68 124 146 162 124 162 124 88 108 108 68 188 220 220 220 131 131 78 131 146 169 146 146 208 182 169 131 124 220 220 220 176 131 0 0 0 0 0 0 0 0 0 0 0 0 0 0 0 0 0 0 0 220 220 220 220 220 188 42 108 108 108 132 108 88 88 108 108 88 88 108 108 108 108 116 132 108 108 116 108 132 116 108 108 108 108 108 42 42 108 68 131 162 162 162 162 162 162 162 131 68 0 106 169 146 131 97 220 202 208 220 220 220 131 78 176 220 220 220 220 220 220 106 0 0 0 0 0 0 0 0 0 0 0 0 0 0 0 0 0 0 0 175 220 220 220 220 220 220 146 68 108 108 108 108 108 88 108 108 42 108 108 108 116 108 108 108 108 108 132 108 108 108 108 108 108 116 108 88 0 68 87 162 162 162 162 162 162 162 162 162 162 97 0 78 181 0 181 169 220 220 220 220 220 220 202 220 220 220 220 220 220 188 181 0 0 0 0 0 0 0 0 0 0 0 0 0 0 0 0 0 0 0 220 220 220 220 220 220 220 220 131 88 108 108 108 108 88 108 108 68 88 108 108 108 108 108 108 108 108 108 108 108 108 108 108 108 108 108 88 0 88 97 162 162 162 162 162 124 124 162 162 162 162 162 106 106 0 0 0 175 182 220 220 220 220 220 220 220 220 220 220 220 146 0 0 0 0 0 0 0 0 0 0 0 0 0 0 0 0 0 0 0 188 220 220 220 220 220 220 220 220 220 106 68 108 108 108 108 108 108 42 108 108 108 132 108 108 108 108 108 108 108 108 108 108 132 108 108 108 108 42 68 68 162 162 162 162 162 162 97 0 162 162 162 162 162 146 97 131 225 0 0 146 208 220 220 220 220 220 220 220 220 131 181 0 0 0 0 0 0 0 0 0 0 0 0 0 0 0 0 0 0 0 220 220 220 220 220 220 220 220 220 220 220 131 68 108 108 108 68 108 0 88 108 108 108 108 108 108 108 116 108 108 108 108 116 108 108 108 108 108 88 68 42 162 162 162 162 162 162 162 116 0 131 162 162 162 162 162 146 78 153 0 0 106 78 131 188 220 220 220 220 176 106 0 0 0 0 0 0 0 0 0 0 0 0 0 0 0 0 0 0 0 188 220 220 220 220 220 220 220 220 220 220 220 220 131 88 108 108 88 88 0 88 108 108 108 108 116 132 108 108 108 108 108 108 108 108 108 108 108 108 108 68 42 78 162 162 162 162 162 162 162 131 0 78 162 162 162 162 162 162 106 106 0 0 181 87 42 97 131 146 146 131 0 0 0 0 0 0 0 0 0 0 0 0 0 0 0 0 0 0 0 0 220 220 220 220 220 220 220 220 220 220 220 220 220 220 131 68 88 108 42 0 108 108 108 116 108 108 108 108 108 108 132 108 108 108 108 108 139 108 108 108 42 146 146 124 162 162 162 162 162 162 162 162 97 0 131 162 162 162 162 162 146 106 138 0 0 0 181 138 160 181 0 0 0 0 0 0 0 0 0 0 0 0 0 0 0 0 0 0 0 0 188 220 220 220 220 220 220 220 220 220 220 220 220 220 220 220 169 97 68 68 0 108 108 108 108 108 108 108 108 108 108 116 88 88 42 124 97 124 42 88 88 88 97 162 131 162 162 162 162 162 162 162 162 162 162 78 78 139 162 162 162 162 162 131 131 0 0 0 0 0 0 0 0 0 0 0 0 0 0 0 0 0 0 0 0 0 0 0 0 0 0 220 220 220 220 220 220 220 220 220 220 220 220 220 220 220 220 220 220 169 87 0 108 108 108 132 108 108 108 108 108 88 68 131 169 220 220 220 220 220 169 106 42 42 162 162 124 139 162 162 162 162 162 162 162 162 162 131 42 97 162 162 162 162 162 162 97 181 0 0 0 0 0 0 0 0 0 0 0 0 0 0 0 0 0 0 0 0 0 0 0 175 220 220 220 220 220 220 220 220 220 220 220 220 220 220 220 220 220 220 220 220 42 88 108 108 108 108 108 108 139 88 87 188 220 220 220 220 220 220 220 220 220 169 42 106 162 162 97 124 162 162 162 162 162 162 162 162 162 162 124 42 131 162 162 162 162 162 131 106 0 0 0 0 0 0 0 0 0 0 0 0 0 0 0 0 0 0 0 0 0 0 220 220 220 220 220 220 220 220 220 220 220 220 220 220 220 220 220 220 220 220 220 106 88 108 108 108 108 108 108 42 146 220 220 220 220 220 220 220 220 220 220 220 220 188 78 124 162 162 97 42 146 162 162 162 162 162 162 162 162 162 146 78 42 146 162 162 162 162 162 106 0 0 0 0 0 0 0 0 0 0 0 0 0 0 0 0 0 0 0 0 131 220 220 220 220 220 220 220 220 220 220 220 220 220 220 220 220 220 220 220 220 220 131 88 108 108 116 108 108 68 146 220 220 220 220 220 220 220 220 220 220 220 220 220 220 146 97 176 162 162 131 42 97 162 162 162 162 162 162 162 162 162 162 162 78 78 139 162 162 162 162 131 138 0 0 0 0 0 0 0 0 0 0 0 0 0 0 0 0 0 0 169 220 220 220 220 220 220 220 220 220 220 220 220 220 220 220 220 220 220 220 220 220 188 68 108 108 132 108 68 131 220 220 220 220 220 220 220 220 220 220 220 220 220 220 220 220 146 131 162 162 162 162 42 87 162 162 162 162 162 162 162 162 162 162 162 124 78 87 162 162 162 162 162 131 0 0 0 0 0 0 0 0 0 0 0 0 0 0 0 0 0 188 220 220 220 220 220 220 220 220 220 220 220 220 220 220 220 220 220 220 220 220 220 220 97 108 108 108 108 87 220 220 220 220 220 220 220 220 220 220 220 220 220 220 220 220 220 220 146 146 162 162 162 162 97 42 131 162 162 162 162 162 162 162 162 162 162 162 146 97 78 131 139 162 146 106 0 0 0 0 0 0 0 0 0 0 0 0 0 0 0 131 220 220 220 220 220 220 220 220 220 220 220 220 220 220 220 220 220 220 220 220 220 220 220 169 68 108 108 88 146 220 220 220 220 220 220 220 220 220 220 220 220 220 220 220 220 220 220 220 146 131 162 162 162 162 146 42 78 162 162 162 162 162 162 162 162 162 162 162 162 162 124 97 97 97 146 106 0 0 0 0 0 0 0 0 0 0 0 0 0 0 146 220 220 220 220 220 220 220 220 220 220 220 220 220 220 220 220 220 220 220 220 220 220 220 220 42 108 108 106 220 220 220 220 220 220 220 220 220 220 220 220 220 220 220 220 220 220 220 220 220 146 97 162 162 162 162 162 106 42 131 162 162 162 162 162 162 162 162 162 162 162 162 162 146 146 124 146 97 0 0 0 0 0 0 0 0 0 0 0 0 0 169 220 220 220 220 220 220 220 220 220 220 220 220 220 220 220 220 220 220 220 220 220 220 220 220 146 68 108 116 220 220 220 220 220 220 220 220 220 220 220 220 220 220 220 220 220 220 220 220 220 220 146 97 162 162 162 162 162 146 42 97 162 162 162 162 162 162 162 162 162 162 162 162 162 162 162 162 162 181 0 0 0 0 0 0 0 0 0 0 0 0 188 220 220 220 220 220 220 220 220 220 220 220 220 220 220 220 220 220 220 220 220 220 220 220 220 220 97 88 131 220 220 220 220 220 220 220 220 220 220 220 220 220 220 220 220 220 220 220 220 220 220 220 146 97 162 162 162 162 162 162 162 124 162 162 162 162 162 162 162 162 162 162 162 162 162 162 162 162 106 0 0 0 0 0 0 0 0 0 0 0 0 220 220 220 220 220 220 220 220 220 220 220 220 220 220 220 220 220 220 220 220 220 220 220 220 220 220 169 68 131 220 220 220 220 220 220 220 220 220 220 220 220 220 220 220 220 220 220 220 220 220 220 220 220 146 87 162 162 162 162 162 162 162 162 162 162 162 162 162 162 162 162 162 162 162 162 162 162 162 97 0 0 0 0 0 0 0 0 0 0 0 0 188 220 220 220 220 220 220 220 220 220 220 220 220 220 220 220 220 220 220 220 220 220 220 220 220 220 220 131 78 220 220 220 220 220 220 220 220 220 220 220 220 220 220 220 220 220 220 220 220 220 220 220 220 220 146 78 162 162 162 162 162 162 162 162 162 162 162 162 139 124 162 124 162 162 162 162 162 162 106 0 0 0 0 0 0 0 0 0 0 0 0 182 220 220 220 220 220 220 220 220 220 220 220 220 220 220 220 220 220 220 220 220 220 220 220 220 220 220 220 87 188 220 220 220 220 220 220 220 220 220 220 220 220 220 220 220 220 220 220 220 220 220 220 220 220 220 169 97 162 162 162 162 162 162 162 162 162 162 162 162 124 131 78 42 78 124 146 139 78 0 0 0 0 0 0 0 0 0 0 0 0 0 220 220 220 220 220 220 220 220 220 220 220 220 220 220 220 220 220 220 220 220 220 220 220 220 220 220 220 220 220 97 220 220 220 220 220 220 220 220 220 220 220 220 220 220 220 220 220 220 220 220 220 220 220 220 220 220 146 97 162 162 162 162 162 162 162 162 162 162 162 162 162 162 146 116 0 153 0 0 0 0 0 0 0 0 0 0 0 0 0 0 0 188 220 220 220 220 220 220 220 220 220 220 220 220 220 220 220 220 220 220 220 220 220 220 220 220 220 220 220 220 169 106 220 220 220 220 220 220 220 220 220 220 220 220 220 220 220 220 220 220 220 220 220 220 220 220 220 220 146 106 162 162 162 162 162 162 162 162 162 162 162 162 162 162 162 124 0 0 0 0 0 0 0 0 0 0 0 0 0 0 0 0 220 220 220 220 220 220 220 220 220 220 220 220 220 220 220 220 220 220 220 220 220 220 220 220 220 220 220 220 220 169 0 131 220 220 220 220 220 220 220 220 220 220 220 220 220 220 220 220 220 220 220 220 220 220 220 220 220 220 131 116 162 162 162 162 162 162 162 162 162 162 162 162 162 162 124 0 0 0 0 0 0 0 0 0 0 0 0 0 0 0 0 208 220 220 220 220 220 220 220 220 220 220 220 220 220 220 220 220 220 220 220 220 220 220 220 220 220 220 220 220 106 78 146 146 220 220 220 220 220 220 220 220 220 220 220 220 220 220 220 220 220 220 220 220 220 220 220 220 220 220 106 97 162 162 162 162 162 162 162 162 162 162 162 162 162 162 0 0 0 0 0 0 0 0 0 0 0 0 0 0 0 0 188 220 220 220 220 220 220 220 220 220 220 220 220 220 220 220 220 220 220 220 220 220 220 220 220 220 220 220 220 0 146 176 162 169 220 220 220 220 220 220 220 220 220 220 220 220 220 220 220 220 220 220 220 220 220 220 220 220 220 220 78 146 162 162 162 162 162 162 162 162 124 162 162 162 124 0 0 0 0 0 0 0 0 0 0 0 0 0 0 0 0 169 220 220 220 220 220 220 220 220 220 220 220 220 220 220 220 220 220 220 220 220 220 220 220 220 220 220 220 169 42 176 176 176 176 188 220 220 220 220 220 220 220 220 220 220 220 220 220 220 220 220 220 220 220 220 220 220 220 220 220 169 87 162 162 162 162 162 162 124 162 78 78 131 139 124 0 0 0 0 0 0 0 0 0 0 0 0 0 0 0 0 146 220 220 220 220 220 220 220 220 220 220 220 220 220 220 220 220 220 220 220 220 220 220 220 220 220 220 220 146 97 176 176 176 176 176 188 220 220 220 220 220 220 220 220 220 220 220 220 220 220 220 220 220 220 220 220 220 220 220 220 220 131 116 162 162 162 162 162 124 87 97 124 162 162 131 0 0 0 0 0 0 0 0 0 0 0 0 0 0 0 0 131 220 220 220 220 220 220 220 220 220 220 220 220 220 220 220 220 220 220 220 220 220 220 220 220 220 220 220 131 146 176 176 176 176 176 176 176 220 220 220 220 220 220 220 220 220 220 220 220 220 220 220 220 220 220 220 220 220 220 220 220 188 78 162 162 162 162 162 162 116 97 106 146 139 78 0 0 0 0 0 0 0 0 0 0 0 0 0 0 0 0 138 220 220 220 220 220 220 220 220 220 220 188 146 131 124 131 182 208 220 220 220 220 220 220 220 220 220 220 87 176 176 176 176 176 176 176 176 162 188 220 220 220 220 220 220 220 220 220 220 220 220 220 220 220 220 220 220 220 220 220 220 220 106 146 162 162 139 146 162 162 162 162 162 162 78 0 0 0 0 0 0 0 0 0 0 0 0 0 0 0 0 0 169 220 220 220 220 220 220 220 220 169 146 169 202 208 202 169 106 146 220 220 220 220 220 220 220 220 220 97 162 176 176 176 176 176 176 176 176 176 169 220 220 220 220 220 220 220 220 220 220 220 220 220 220 220 220 220 220 220 220 220 220 146 124 162 162 162 162 97 131 162 124 162 162 106 0 0 0 0 0 0 0 0 0 0 0 0 0 0 0 0 0 146 220 220 220 220 220 220 188 146 188 220 220 220 220 220 220 208 106 131 220 220 220 220 220 220 220 220 78 176 176 176 176 176 176 176 176 176 176 176 131 182 220 220 220 220 220 220 220 220 220 220 220 220 220 220 220 220 220 220 220 220 169 124 162 162 162 162 162 139 97 116 131 146 106 0 0 0 0 0 0 0 0 0 0 0 0 0 0 0 0 0 131 220 220 220 220 220 169 131 220 220 220 220 220 220 220 220 220 220 106 169 220 220 220 220 220 220 220 97 176 176 176 176 176 176 176 176 176 176 176 176 78 146 220 220 220 220 220 220 220 220 220 220 220 220 220 220 220 220 220 220 220 188 97 162 162 162 162 97 146 162 162 162 139 0 0 0 0 0 0 0 0 0 0 0 0 0 0 0 0 0 0 0 188 220 220 220 169 146 220 220 220 220 220 220 220 220 220 220 220 169 106 220 220 220 220 220 220 208 97 176 176 176 176 176 176 176 176 176 176 176 176 176 131 131 182 220 220 220 220 220 220 220 220 220 220 220 220 220 220 220 220 220 188 116 162 162 162 124 116 87 78 131 162 124 0 0 0 0 0 0 0 0 0 0 0 0 0 0 0 0 0 0 0 146 220 220 169 131 220 220 220 220 220 220 220 220 220 220 220 220 220 106 202 220 220 220 220 220 220 78 176 176 176 176 176 176 176 176 176 176 176 176 176 176 176 131 97 146 220 220 220 220 220 220 220 220 220 220 220 220 220 220 220 202 42 146 162 162 162 162 162 162 162 162 106 0 0 0 0 0 0 0 0 0 0 0 0 0 0 0 0 0 0 0 0 220 188 106 220 220 220 220 220 220 220 220 220 220 220 220 220 220 146 169 220 220 220 220 220 220 97 162 176 176 176 176 176 176 176 176 176 176 176 176 176 176 176 162 97 78 131 220 220 220 220 220 220 220 220 220 220 220 220 220 169 87 97 97 162 162 162 162 162 162 162 138 0 0 0 0 0 0 0 0 0 0 0 0 0 0 0 0 0 0 0 0 146 124 220 220 220 220 220 220 220 220 220 220 220 220 220 220 220 188 146 220 220 220 220 220 220 97 176 176 176 176 176 176 176 176 176 176 176 176 176 176 176 176 176 176 176 131 78 131 182 220 220 220 220 220 220 220 220 220 220 131 176 162 97 78 97 97 97 97 97 97 0 0 0 0 0 0 0 0 0 0 0 0 0 0 0 0 0 0 0 0 0 138 169 220 220 220 220 220 220 220 220 220 220 220 220 220 220 220 220 131 220 220 220 220 220 220 106 146 176 176 176 176 176 176 176 176 176 176 176 176 176 176 176 176 176 176 176 176 146 78 106 169 220 220 220 220 220 220 220 169 97 176 176 176 176 176 131 78 131 131 106 0 0 0 0 0 0 0 0 0 0 0 0 0 0 0 0 0 0 0 0 0 146 220 220 220 220 220 220 220 220 220 220 220 220 220 220 220 220 220 146 220 220 220 220 220 220 131 131 176 176 176 176 176 176 176 176 176 176 176 176 176 176 176 176 176 176 176 176 176 176 176 131 131 146 169 188 182 208 146 97 162 176 176 146 146 162 176 176 176 146 0 0 0 0 0 0 0 0 0 0 0 0 0 0 0 0 0 0 0 0 0 138 220 220 220 220 220 220 220 220 220 220 220 220 220 220 220 220 220 220 131 220 220 220 220 220 220 146 97 176 176 176 176 176 176 176 176 176 176 176 176 176 176 176 176 176 176 176 176 176 176 176 176 176 162 146 97 78 97 131 176 176 176 176 176 131 78 42 87 97 131 0 0 0 0 0 0 0 0 0 0 0 0 0 0 0 0 0 0 0 0 0 169 220 220 220 220 220 220 220 220 220 220 220 220 220 220 220 220 220 220 146 220 220 220 220 220 220 208 78 176 176 176 176 176 176 176 176 176 176 176 176 176 176 176 176 176 176 176 176 176 176 162 131 97 146 176 176 176 176 176 176 176 176 176 176 176 176 162 176 131 0 0 0 0 0 0 0 0 0 0 0 0 0 0 0 0 0 0 0 0 0 131 220 220 220 220 220 220 220 220 220 220 220 220 220 220 220 220 220 220 220 131 220 220 220 220 220 220 220 87 176 176 176 176 176 176 176 176 176 176 176 176 176 176 176 176 176 176 176 176 176 176 176 176 162 97 78 131 176 176 176 176 146 97 162 176 176 176 176 176 106 0 0 0 0 0 0 0 0 0 0 0 0 0 0 0 0 0 0 0 0 0 169 220 220 220 220 220 220 220 220 220 220 220 220 220 220 220 220 220 220 220 146 220 220 220 220 220 220 220 106 146 176 176 176 176 176 176 176 176 176 176 176 176 176 176 176 176 176 176 176 176 176 176 176 176 176 176 97 78 97 146 162 176 78 97 131 131 97 78 0 181 0 0 0 0 0 0 0 0 0 0 0 0 0 0 0 0 0 0 0 0 131 202 220 220 220 220 220 220 220 220 220 220 220 220 220 220 220 220 220 220 208 146 220 220 220 220 220 220 220 169 131 176 176 176 176 176 176 176 176 176 176 176 176 176 176 176 176 176 176 176 176 176 176 176 146 162 176 176 176 176 131 131 146 146 162 176 176 176 131 181 0 0 0 0 0 0 0 0 0 0 0 0 0 0 0 0 0 0 0 0 0 131 220 220 220 220 220 220 220 220 220 220 220 220 220 220 220 220 220 220 220 169 169 220 220 220 220 220 220 220 220 97 176 176 176 176 176 176 176 176 176 176 176 176 176 176 176 176 176 176 176 176 176 176 176 176 97 78 146 176 176 176 176 176 176 162 155 176 146 0 0 0 0 0 0 0 0 0 0 0 0 0 0 0 0 0 0 0 0 0 0 131 188 220 220 220 220 220 220 220 220 220 220 220 220 220 220 220 220 220 220 220 146 188 220 220 220 220 220 220 220 220 146 131 176 176 176 176 176 176 176 176 176 176 176 176 176 176 176 176 176 176 176 176 176 176 176 176 146 97 131 176 162 97 78 176 176 176 169 0 0 0 0 0 0 0 0 0 0 0 0 0 0 0 0 0 0 0 0 0 0 0 131 220 220 220 220 220 220 220 220 220 220 220 220 220 220 220 220 220 220 220 220 131 220 220 220 220 220 220 220 220 220 220 146 146 176 176 176 176 176 176 176 176 176 176 176 176 176 176 176 176 176 176 176 176 176 176 176 176 176 176 162 176 146 97 131 176 169 0 0 0 0 0 0 0 0 0 0 0 0 0 0 0 0 0 0 0 0 0 0 0 131 169 220 220 220 220 220 220 220 220 220 220 220 220 220 220 220 220 220 220 220 220 124 220 220 220 220 220 220 220 220 220 220 220 169 146 176 176 176 176 176 176 176 176 176 176 176 176 176 176 176 176 176 176 176 176 176 176 176 176 176 176 176 176 176 176 169 0 0 0 0 0 0 0 0 0 0 0 0 0 0 0 0 0 0 0 0 0 0 0 0 106 220 220 220 220 220 220 220 220 220 220 220 220 220 220 220 220 220 220 220 220 169 131 220 220 220 220 220 220 220 220 220 220 220 220 169 97 176 176 176 176 176 176 176 176 176 176 176 176 176 176 176 176 176 176 176 176 78 97 78 146 146 162 176 176 138 0 0 0 0 0 0 0 0 0 0 0 0 0 0 0 0 0 0 0 0 0 0 0 0 181 146 220 220 220 220 220 220 220 220 220 220 220 220 220 220 220 220 220 220 220 220 131 106 131 169 202 220 220 220 220 220 220 220 220 220 220 106 78 162 176 176 176 176 176 176 176 176 176 176 176 176 176 176 176 176 176 176 176 176 162 176 176 176 131 138 0 0 0 0 0 0 0 0 0 0 0 0 0 0 0 0 0 0 0 0 0 0 0 0 0 87 220 220 220 220 220 220 220 220 220 220 220 220 220 220 220 220 220 220 220 220 188 181 0 0 181 138 160 131 146 169 169 182 169 131 106 131 169 169 106 146 176 176 176 176 176 176 176 176 176 176 176 176 176 97 78 176 176 176 176 176 176 176 97 181 0 0 0 0 0 0 0 0 0 0 0 0 0 0 0 0 0 0 0 0 0 0 0 0 0 0 131 220 220 220 220 220 220 220 220 220 220 220 220 220 220 220 220 220 220 220 220 146 0 0 0 0 0 0 0 0 0 0 0 0 0 87 182 220 220 220 169 146 162 176 176 176 176 176 176 176 176 176 162 176 176 131 176 176 176 176 176 97 0 0 131 138 131 138 0 0 0 0 0 0 0 0 0 0 0 0 0 0 0 0 0 0 0 0 0 0 131 188 220 220 220 220 220 220 220 220 220 220 220 220 220 220 220 220 220 220 220 220 138 0 0 0 0 0 0 0 0 0 0 0 0 0 0 0 131 175 220 220 220 182 124 176 176 176 176 176 176 176 176 97 176 176 176 176 176 162 131 78 131 87 106 188 220 220 146 138 0 0 0 0 0 0 0 0 0 0 0 0 0 0 0 0 0 0 0 0 0 106 220 220 220 220 220 220 220 220 220 220 220 220 220 220 220 220 220 220 220 220 131 0 0 0 0 0 0 0 0 0 0 0 0 0 0 0 0 0 138 106 208 220 220 220 169 146 176 176 176 176 176 176 176 176 176 176 176 78 97 131 202 169 146 220 220 220 220 220 106 0 0 0 0 0 0 0 0 0 0 0 0 0 0 0 0 0 0 0 0 181 146 220 220 220 220 220 220 220 220 220 220 220 220 220 220 220 220 220 220 220 188 175 0 0 0 0 0 0 0 0 0 0 0 0 0 0 0 0 0 0 181 78 169 220 220 220 220 169 131 146 162 176 176 176 176 131 97 87 146 220 220 208 146 220 220 220 220 220 220 131 181 0 0 0 0 0 0 0 0 0 0 0 0 0 0 0 0 0 0 0 131 188 220 220 220 220 220 220 220 220 220 220 220 220 220 220 220 220 220 220 220 131 0 0 0 0 0 0 0 0 0 0 0 0 0 0 0 0 0 0 0 0 0 87 131 220 220 220 220 220 131 97 97 78 97 106 42 87 220 220 220 220 169 188 220 220 220 220 220 220 188 131 0 0 0 0 0 0 0 0 0 0 0 0 0 0 0 0 0 0 0 131 220 220 220 220 220 220 220 220 220 220 220 220 220 220 220 220 220 220 220 146 0 0 0 0 0 0 0 0 0 0 0 0 0 0 0 0 0 0 0 0 0 0 0 131 87 220 220 220 220 220 220 188 169 220 208 131 220 220 220 220 220 182 220 220 220 220 220 220 220 220 106 0 0 0 0 0 0 0 0 0 0 0 0 0 0 0 0 0 0 0 169 220 220 220 220 220 220 220 220 220 220 220 220 220 220 220 220 220 220 169 0 0 0 0 0 0 0 0 0 0 0 0 0 0 0 0 0 0 0 0 0 0 0 0 0 153 87 220 220 220 220 220 220 220 220 169 182 220 220 220 220 188 169 220 220 220 220 220 220 220 220 131 0 0 0 0 0 0 0 0 0 0 0 0 0 0 0 0 0 0 138 220 220 220 220 220 220 220 220 220 220 220 220 220 220 220 220 220 220 188 160 0 0 0 0 0 0 0 0 0 0 0 0 0 0 0 0 0 0 0 0 0 0 0 0 0 0 160 106 220 220 220 220 220 220 220 202 220 220 220 220 220 169 188 220 220 220 220 220 220 220 220 131 0 0 0 0 0 0 0 0 0 0 0 0 0 0 0 0 0 0 131 220 220 220 220 220 220 220 220 220 220 220 220 220 220 220 220 220 182 131 0 0 0 0 0 0 0 0 0 0 0 0 0 0 0 0 0 0 0 0 0 0 0 0 0 0 0 0 160 146 220 220 220 220 220 220 220 220 220 220 220 220 146 220 220 220 220 220 220 220 220 208 138 0 0 0 0 0 0 0 0 0 0 0 0 0 0 0 0 0 0 188 220 220 220 220 220 220 220 220 220 220 220 220 220 220 220 220 220 131 0 0 0 0 0 0 0 0 0 0 0 0 0 0 0 0 0 0 0 0 0 0 0 0 0 0 0 0 0 0 131 169 220 220 220 220 220 220 220 220 220 220 208 146 220 220 220 220 220 220 220 220 188 181 0 0 0 0 0 0 0 0 0 0 0 0 0 0 0 0 0 0 220 220 220 220 220 220 220 220 220 220 220 220 220 220 220 220 220 131 232 0 0 0 0 0 0 0 0 0 0 0 0 0 0 0 0 0 0 0 0 0 0 0 0 0 0 0 0 0 0 0 106 188 220 220 220 220 220 220 220 220 220 169 146 220 220 220 220 220 220 220 220 169 0 0 0 0 0 0 0 0 0 0 0 0 0 0 0 0 0 0 208 220 220 220 220 220 220 220 220 220 220 220 220 220 220 220 220 131 0 0 0 0 0 0 0 0 0 0 0 0 0 0 0 0 0 0 0 0 0 0 0 0 0 0 0 0 0 0 0 0 0 0 131 208 220 220 220 220 220 220 220 220 131 188 220 220 220 220 220 220 220 220 131 0 0 0 0 0 0 0 0 0 0 0 0 0 0 0 0 0 0 202 220 220 220 220 220 220 220 220 220 220 220 220 220 220 220 131 0 0 0 0 0 0 0 0 0 0 0 0 0 0 0 0 0 0 0 0 0 0 0 0 0 0 0 0 0 0 0 0 0 0 0 0 131 220 220 220 220 220 220 220 220 124 220 220 220 220 220 220 220 220 169 181 0 0 0 0 0 0 0 0 0 0 0 0 0 0 0 0 0 232 220 220 220 220 220 220 220 220 220 220 220 220 220 220 220 131 0 0 0 0 0 0 0 0 0 0 0 0 0 0 0 0 0 0 0 0 0 0 0 0 0 0 0 0 0 0 0 0 0 0 0 0 0 0 146 220 220 220 220 220 220 169 146 220 220 220 220 220 220 220 220 106 0 0 0 0 0 0 0 0 0 0 0 0 0 0 0 0 0 0 220 220 220 220 220 220 220 220 220 220 220 220 220 220 220 131 0 0 0 0 0 0 0 0 0 0 0 0 0 0 0 0 0 0 0 0 0 0 0 0 0 0 0 0 0 0 0 0 0 0 0 0 0 0 0 0 175 220 220 220 220 220 146 208 220 220 220 220 220 220 220 131 0 0 0 0 0 0 0 0 0 0 0 0 0 0 0 0 0 0 0 220 220 220 220 220 220 220 220 220 220 220 220 220 220 87 106 181 0 0 0 0 0 0 0 0 0 0 0 0 0 0 0 0 0 0 0 0 0 0 0 0 0 0 0 0 0 0 0 0 0 0 0 0 0 0 0 0 188 220 220 220 169 146 220 220 220 220 220 220 220 146 160 0 0 0 0 0 0 0 0 0 0 0 0 0 0 0 0 0 0 232 220 220 220 220 220 220 220 220 220 220 220 220 220 131 124 146 131 87 42 78 131 0 0 0 0 0 0 0 0 0 0 0 0 0 0 0 0 0 0 0 0 0 0 0 0 0 0 0 0 0 0 0 0 0 0 0 0 0 169 220 220 87 188 220 220 220 220 220 220 169 131 0 0 0 0 0 0 0 0 0 0 0 0 0 0 0 0 0 0 0 208 220 220 220 220 220 220 220 220 220 220 220 208 131 182 220 220 220 220 220 188 131 87 250 0 0 0 0 0 0 0 0 0 0 0 0 0 0 0 0 0 0 0 0 0 0 0 0 0 0 0 0 0 0 0 0 0 0 0 0 169 220 106 220 220 220 220 220 220 169 153 0 0 0 0 0 0 0 0 0 0 0 0 0 0 0 0 0 0 0 0 220 220 220 220 220 220 220 220 220 220 220 188 146 220 220 220 220 220 220 220 220 220 188 131 0 0 0 0 0 0 0 0 0 0 0 0 0 0 0 0 0 0 0 0 0 0 0 0 0 0 0 0 0 0 0 0 0 0 0 0 0 131 87 146 220 220 220 188 131 181 0 0 0 0 0 0 0 0 0 0 0 0 0 0 0 0 0 0 0 0 175 220 220 220 220 220 220 220 220 220 208 182 169 220 220 220 220 220 220 220 220 220 220 220 146 0 0 0 0 0 0 0 0 0 0 0 0 0 0 0 0 0 0 0 0 0 0 0 0 0 0 0 0 0 0 0 0 0 0 0 0 0 0 78 0 106 131 131 138 0 0 0 0 0 0 0 0 0 0 0 0 0 0 0 0 0 0 0 0 0 255 169 220 220 220 220 220 220 220 220 182 146 188 220 220 220 220 220 220 220 220 220 220 220 220 169 0 0 0 0 0 0 0 0 0 0 0 0 0 0 0 0 0 0 0 0 0 0 0 0 0 0 0 0 0 0 0 0 0 0 0 0 0 0 0 0 237 0 0 0 0 0 0 0 0 0 0 0 0 0 0 0 0 0 0 0 0 0 0 0 0 0 202 220 220 220 220 220 220 220 220 220 220 220 220 220 220 220 220 220 220 220 220 220 220 220 146 0 0 0 0 0 0 0 0 0 0 0 0 0 0 0 0 0 0 0 0 0 0 0 0 0 0 0 0 0 0 0 0 0 0 0 0 0 0 0 0 0 0 0 0 0 0 0 0 0 0 0 0 0 0 0 0 0 0 0 0 0 0 0 0 0 146 220 220 220 220 220 220 220 220 220 220 220 220 220 220 220 220 220 220 220 220 220 220 220 188 131 0 0 0 0 0 0 0 0 0 0 0 0 0 0 0 0 0 0 0 0 0 0 0 0 0 0 0 0 0 0 0 0 0 0 0 0 0 0 0 0 0 0 0 0 0 0 0 0 0 0 0 0 0 0 0 0 0 0 0 0 0 0 0 0 0 131 188 220 220 220 220 220 220 220 220 220 220 220 220 220 220 220 220 220 220 220 220 220 169 106 0 0 0 0 0 0 0 0 0 0 0 0 0 0 0 0 0 0 0 0 0 0 0 0 0 0 0 0 0 0 0 0 0 0 0 0 0 0 0 0 0 0 0 0 0 0 0 0 0 0 0 0 0 0 0 0 0 0 0 0 0 0 0 0 0 0 0 131 220 220 220 220 220 220 220 220 220 220 220 220 220 220 220 220 220 220 220 188 131 138 0 0 0 0 0 0 0 0 0 0 0 0 0 0 0 0 0 0 0 0 0 0 0 0 0 0 0 0 0 0 0 0 0 0 0 0 0 0 0 0 0 0 0 0 0 0 0 0 0 0 0 0 0 0 0 0 0 0 0 0 0 0 0 0 0 0 0 0 0 175 188 220 220 220 220 220 220 220 220 220 220 220 220 220 220 220 169 131 175 0 0 0 0 0 0 0 0 0 0 0 0 0 0 0 0 0 0 0 0 0 0 0 0 0 0 0 0 0 0 0 0 0 0 0 0 0 0 0 0 0 0 0 0 0 0 0 0 0 0 0 0 0 0 0 0 0 0 0 0 0 0 0 0 0 0 0 0 0 0 0 0 0 181 131 131 131 182 188 208 220 208 220 208 182 169 131 131 181 0 0 0 0 0 0 0 0 0 0 0 0 0 0 0 0 0 0 0 0 0 0 0 0 0 0 0 0 0 0 0 0 0 0 0 0 0 0 0 0 0 0 0 0 0 0 0 0 0 0 0 0 0 0 0 0 0 0 0 0 0 0 0 0 0 0 0 0 0 0 0 0 0 0 0 0 0 0 181 138 131 87 106 87 106 87 138 181 0 0 0 0 0 0 0 0 0 0 0 0 0 0 0 0 0 0 0 0 0 0 0 0 0 0 0 0 0 0 0 0 0 0 0 0 0 0 0 0 0 0 0 0 0 0 0 0 0 0 0 0 0 0 0 0 0 0 0 0 0 0 0 0 0 0 0 0 0 0 0 0 0 0 